<?xml version="1.0" encoding="UTF-8" standalone="no"?>
<!-- Generator: Adobe Illustrator 13.0.0, SVG Export Plug-In . SVG Version: 6.00 Build 14948)  -->
<!DOCTYPE svg  PUBLIC '-//W3C//DTD SVG 1.1//EN'  'http://www.w3.org/Graphics/SVG/1.1/DTD/svg11.dtd'>
<svg id="Layer_1" xmlns="http://www.w3.org/2000/svg" xml:space="preserve" height="262.71px" viewBox="0 0 327.437 262.707" width="327.44px" version="1.1" y="0px" x="0px" xmlns:xlink="http://www.w3.org/1999/xlink" enable-background="new 0 0 327.437 262.707">
		<defs>
			<rect id="SVGID_1_" width="327.44" height="262.66"/>
		</defs>
		<clipPath id="SVGID_2_">
			<use overflow="visible" xlink:href="#SVGID_1_"/>
		</clipPath>
		<g clip-path="url(#SVGID_2_)">
			<path d="m191.98 225.8c-1.248-1.291-1.203-1.088-3.037-1.022-2.115 0.074-4.23 0.147-6.346 0.224-17.066 0.6-34.133 1.198-51.199 1.797-0.764 0.026-4.074 5.863-4.652 6.754-2.176 3.356-4.232 6.795-6.088 10.342-3.142 6.004-5.892 12.234-8.078 18.656h101.76c-1.18-3.293-2.521-6.508-3.996-9.621-4.68-9.89-10.71-19.26-18.35-27.13z" fill="#fff"/>
		</g>
		<defs>
			<rect id="SVGID_3_" width="327.44" height="262.66"/>
		</defs>
		<clipPath id="SVGID_4_">
			<use overflow="visible" xlink:href="#SVGID_3_"/>
		</clipPath>
		<g clip-path="url(#SVGID_4_)">
			<g opacity=".2">
				<path d="m121.21 242.04c0.016-0.021 0.035-0.049 0.053-0.074 0.122-0.199 0.231-0.404 0.327-0.617 0.254-0.6 0.54-1.159 0.875-1.719 0.113-0.188 0.23-0.379 0.341-0.57 0.014-0.063 0.034-0.145 0.066-0.26 0.193-0.84 0.614-1.569 1.177-2.166-1.776-0.533-3.519-1.102-5.072-1.709-3.809-1.592-8.486-3.702-11.898-6.758-7.432-6.653-13.215-12.129-15.816-21.514-2.43-9.338 0.246-19.123 1.922-28.627l13.27-6.703s7.285-22.131 0.775-27.619c-5.689-4.795-8.666-3.164-8.666-3.164l-6.008 11.068-1.064-11.611c-21.193 1.488-17.236 31.008-17.236 31.008l10.805 6.367c-1.902 6.955-3.705 18.27-2.914 25.498 1.523 13.332 8.559 23.373 18.389 31.967 5.598 4.935 12.252 7.844 19.114 10.205 0.27-1.09 0.74-2 1.55-3.02z" fill="#fff"/>
					<path d="m119.52 244.36c-5.28-1.861-10.414-4.061-15.097-7.24-6.338-4.307-11.889-10.607-15.838-17.133-7.91-13.068-6.666-28.363-2.877-42.563 0.053-0.193-0.09-0.414-0.25-0.508l-10.482-6.177c-0.043-0.024-0.068-0.034-0.1-0.048-0.045-0.391-0.079-0.781-0.111-1.173-0.145-1.742-0.176-3.492-0.137-5.238 0.24-10.769 4.353-22.205 16.277-23.651 0.337 3.695 0.677 7.391 1.014 11.086 0.059 0.641 1.004 0.523 1.24 0.086 1.854-3.416 3.709-6.832 5.563-10.248 0.214-0.395 0.352-0.553 0.366-0.596 0.788-0.266 1.749-0.064 2.507 0.123 3.615 0.898 6.514 3.662 7.33 7.243 1.242 5.458-0.193 11.681-1.459 17.013-0.412 1.739-0.887 3.465-1.406 5.174-0.082 0.271-0.127 0.402-0.141 0.457-0.631 0.32-1.263 0.639-1.895 0.957-3.686 1.863-7.371 3.725-11.057 5.586-0.619 0.313-0.52 1.021-0.635 1.66-0.432 2.396-0.914 4.785-1.355 7.18-0.885 4.805-1.473 9.631-1.26 14.52 0.689 15.973 15.299 28.801 29.018 34.584 1.589 0.67 3.242 1.211 4.912 1.703 0.189-0.4 0.425-0.775 0.712-1.113-7.333-2.391-13.875-5.539-19.843-11.033-6.588-6.063-11.91-12.897-13.291-21.977-0.773-5.092-0.023-10.354 0.824-15.385 0.404-2.404 0.891-4.795 1.346-7.189 0.314-1.646-0.262-1.771 1.086-2.451 3.918-1.979 7.836-3.957 11.754-5.938 1.766-0.891 1.947-4.355 2.375-6.066 1.309-5.213 2.305-10.69 1.863-16.082-0.422-5.168-3.885-8.774-8.945-10.033-3.016-0.748-3.592 0.527-4.855 2.855l-3.656 6.735c-0.292-3.194-0.585-6.388-0.877-9.582-0.033-0.354-0.438-0.474-0.729-0.448-10.24 0.893-15.717 8.65-17.438 18.182-0.652 3.608-0.76 7.328-0.568 10.983 0.121 2.293 0.055 2.615 2.047 3.787 2.084 1.229 4.168 2.457 6.252 3.685 0.805 0.473 1.607 0.944 2.41 1.42 0.766 0.451-0.271 2.092-0.521 3.17-1.736 7.514-2.924 15.615-1.955 23.318 1.943 15.463 13.23 29.526 26.66 36.889 3.418 1.871 7.054 3.311 10.749 4.58 0.12-0.38 0.28-0.76 0.48-1.1z" fill="#808080"/>
			</g>
			<g opacity=".2">
				<path d="m218.44 238.64c18.983 2.388 32.111 1.976 44.568-10.619 11.239-11.356 15.163-22.741 18.971-37.819l-13.567-9.365 5.828-23.449 10.301-7.439 4.936 11.844 5.135-12.489s18.891 4.198 12.393 33.137l-15.766 10.144c-2.145 37.899-36.303 67.979-74.727 55.861" fill="#fff"/>
					<path d="m218.21 239.16c14.439 1.77 28.81 2.234 40.947-6.945 13.502-10.211 19.48-26.266 23.506-42.051 0.035-0.131-0.065-0.289-0.168-0.359-4.053-2.795-8.104-5.592-12.158-8.389-1.555-1.074-1.291-0.416-0.832-2.266 0.642-2.57 1.279-5.143 1.919-7.713 1.161-4.68 2.325-9.357 3.487-14.037 0.017-0.063 3.992-2.717 4.933-3.395 1.717-1.242 3.435-2.48 5.149-3.721-0.377-0.05-0.754-0.1-1.131-0.148 1.646 3.947 3.289 7.895 4.937 11.844 0.221 0.529 1.122 0.4 1.325-0.094 0.793-1.932 1.588-3.863 2.384-5.797 0.577-1.404 1.155-2.81 1.733-4.215 0.244-0.595 0.488-1.188 0.732-1.783 0.443-1.074 0.213-0.082-0.572-0.264 2.984 0.693 5.727 2.799 7.768 4.98 5.336 5.699 5.939 14.064 5.213 21.436-0.1 1.027-0.252 5.498-1.051 6.012-0.906 0.584-1.813 1.168-2.723 1.752-2.832 1.82-5.664 3.644-8.496 5.465-1.443 0.931-2.887 1.857-4.33 2.787-0.682 0.438-0.393 2.517-0.449 3.168-0.243 2.752-0.743 5.478-1.33 8.175-2.235 10.321-7.305 19.924-14.157 27.907-14.401 16.779-36.968 22.813-57.951 16.47-0.61-0.187-1.596 0.696-0.771 0.946 17.438 5.271 35.459 2.521 50.277-8.149 15.02-10.813 23.821-28.646 25.43-46.83 0.186-2.104 3.115-3.118 4.945-4.297 2.789-1.793 5.578-3.588 8.369-5.383 1.971-1.271 2.396-1.181 2.891-3.507 0.955-4.514 1.229-9.143 0.777-13.731-0.771-7.813-5.84-16.337-13.977-18.229-0.309-0.072-0.754 0.121-0.877 0.422-1.713 4.162-3.424 8.324-5.137 12.488 0.441-0.031 0.885-0.061 1.326-0.092-1.645-3.947-3.289-7.895-4.936-11.843-0.189-0.455-0.791-0.394-1.129-0.147-3.9 2.815-9.873 5.151-11.082 10.015-1.76 7.081-3.521 14.166-5.281 21.25-0.033 0.131 0.066 0.286 0.17 0.356 4.053 2.797 8.104 5.594 12.156 8.389 1.363 0.941 1.279 0.472 0.848 2.164-0.74 2.902-1.559 5.781-2.445 8.644-1.406 4.531-3.201 8.914-5.389 13.123-4.887 9.399-12.76 18.131-22.465 22.597-9.861 4.534-21.518 3.248-31.93 1.973-0.69-0.08-1.37 0.91-0.46 1.03z" fill="#808080"/>
			</g>
				<path d="m121.46 241.48l0.01-4.987c-3.918 0-8.424 0-12.145-0.393-4.504-0.586-10.084-1.469-14.588-3.723-9.814-4.904-17.543-9.037-23.027-18.24-5.289-9.205-5.289-20.365-6.264-30.938l12.137-10.968s1.309-25.596-7.193-29.53c-7.426-3.438-10.115-0.844-10.115-0.844l-3.16 13.49-4.498-12.015c-22.061 7.729-9.297 37.908-9.297 37.908l13.314 3.621c0 7.932 1.369 20.465 4.307 27.903 5.482 13.707 15.863 22.323 28.791 28.59 9.08 4.453 18.978 5.179 28.8 5.567 0.279-0.818 0.758-1.551 1.408-2.131 0.12-1.25 0.63-2.44 1.52-3.32z" fill="#fff"/>
					<path d="m118.64 246.64c-8.932-0.378-17.845-1.108-26.227-4.517-7.598-3.09-14.797-7.932-20.576-13.727-11.541-11.568-14.477-27.871-14.566-43.631 0-0.096-0.152-0.141-0.217-0.158-4.248-1.154-8.494-2.311-12.742-3.465-0.598-0.162-0.48-0.273-0.871-1.34-0.641-1.748-1.168-3.537-1.633-5.34-3.001-11.646-2.084-25.451 10.319-30.607 1.447 3.865 2.895 7.732 4.343 11.6 0.127 0.34 1.193 0.207 1.271-0.129 0.924-3.945 1.85-7.89 2.773-11.834 0.424-1.808 0.492-2.137 2.729-2.279 3.605-0.232 7.588 1.558 9.611 4.539 2.951 4.344 3.473 10.492 3.883 15.569 0.293 3.603 0.357 7.24 0.209 10.853-0.012 0.287-1.533 1.461-2.02 1.899-1.959 1.771-3.918 3.539-5.879 5.312-1.32 1.193-2.643 2.389-3.965 3.582-0.502 0.453-0.271 0.445-0.184 1.438 0.23 2.576 0.404 5.156 0.619 7.732 0.721 8.678 2.141 17.334 7.184 24.635 4.232 6.131 10.588 10.148 17.053 13.57 4.896 2.592 9.596 4.447 15.07 5.424 5.465 0.977 10.979 1.014 16.512 1.016 0.57 0 1.143-0.563 0.26-0.564-10.223-0.002-19.781-0.715-29.033-5.416-7.146-3.631-13.846-7.805-18.646-14.364-5.619-7.683-6.563-17.528-7.295-26.716-0.064-0.813-1.027-6.084-0.578-6.489 0.354-0.319 0.707-0.64 1.059-0.957 1.822-1.646 3.643-3.291 5.463-4.938 1.594-1.438 3.186-2.877 4.779-4.315 0.551-0.498 0.869-0.627 0.896-1.341 0.15-3.948 0.021-7.915-0.328-11.85-0.436-4.889-1.223-10.168-3.842-14.414-2.324-3.767-8.078-5.431-12.258-4.551-2.348 0.495-2.279 1.485-2.781 3.631-0.681 2.905-1.362 5.813-2.043 8.719-1.245-3.326-2.489-6.651-3.734-9.977-0.123-0.328-0.777-0.158-1.002-0.074-10.318 3.803-13.936 13.197-13.104 23.586 0.324 4.033 1.268 8.026 2.525 11.865 0.617 1.887 0.568 2.715 2.445 3.225 4.016 1.094 8.031 2.186 12.047 3.277-0.1-0.027 0.396 10.086 0.49 10.959 0.461 4.28 1.199 8.536 2.299 12.698 3.959 15.002 15.965 25.623 29.359 32.379 9.408 4.743 19.781 5.632 30.128 6.062 0.06-0.18 0.12-0.38 0.2-0.56z" fill="#808080"/>
			<g fill="#808080">
				<path d="m191.67 223.92c-0.303-0.307-0.934-0.166-1.311-0.151-2.873 0.103-5.746 0.2-8.619 0.303-10.137 0.354-20.273 0.711-30.41 1.065-6.15 0.218-12.301 0.433-18.451 0.648-1.959 0.068-2.102 0.004-3.449 1.818-3.768 5.068-7.074 10.473-10.043 16.043-3.202 6.005-6.014 12.398-8.269 19.016h0.743c4.544-13.387 11.375-25.988 19.223-36.279l60.074-2.106c10.105 10.104 18.542 23.701 23.738 38.388h0.783c-3.959-11.115-9.803-21.578-16.758-30.537-2.23-2.89-4.67-5.62-7.24-8.21z"/>
				<path d="m120.58 244c1.855-3.547 3.912-6.983 6.088-10.342 0.578-0.891 3.889-6.727 4.652-6.754 17.066-0.598 34.134-1.197 51.199-1.797 2.114-0.074 4.229-0.148 6.347-0.223 1.834-0.064 1.788-0.268 3.036 1.023 7.634 7.877 13.67 17.245 18.358 27.127 1.478 3.112 2.818 6.328 3.998 9.621h0.638c-5.196-14.687-13.632-28.281-23.737-38.388l-60.075 2.106c-7.849 10.291-14.679 22.894-19.223 36.279h0.641c2.17-6.42 4.92-12.66 8.06-18.66z"/>
			</g>
						<path d="m118.88 135.25s-9.785-12.938-23.852-19.015c-14.061-6.073-17.775-5.625-17.775-5.625s-2.586 0.787-1.912 4.275c0.672 3.489 4.387 20.027 9.563 25.539 5.176 5.515 15.752 4.839 22.727 7.652 6.977 2.813 9.789 7.088 9.789 7.088l1.46-19.93z" fill="#fff"/>
							<path d="m119.48 135.02c-6.182-8.115-14.748-15.056-24.051-19.2-5.121-2.282-10.596-4.564-16.152-5.527-1.65-0.286-2.693-0.294-3.891 1.059-2.355 2.662 0.695 9.735 1.479 12.542 1.498 5.354 3.219 11.545 6.758 15.95 4.076 5.074 11.129 5.773 17.1 6.91 5.854 1.117 12.576 3.447 16.098 8.631 0.256 0.375 1.197 0.363 1.238-0.195 0.488-6.638 0.975-13.275 1.463-19.914 0.051-0.697-1.234-0.673-1.279-0.059-0.488 6.638-0.975 13.275-1.463 19.912 0.414-0.064 0.826-0.129 1.238-0.195-5.955-8.766-17.459-8.447-26.488-11.258-6.365-1.982-8.951-7.247-11.148-13.063-1.814-4.799-3.125-9.823-4.195-14.837-0.787-3.691 0.229-4.999 3.225-4.433 5.57 1.055 11.01 3.424 16.15 5.715 8.732 3.892 16.922 10.8 22.723 18.414 0.37 0.52 1.6 0.11 1.19-0.43z" fill="#808080"/>
						<path d="m116.01 141.87l-2.77-0.427s-4.725 0.675-6.752 2.024c-2.023 1.35-6.301-4.5-7.197-9.225-0.902-4.725-7.09-17.438-14.176-20.137-7.09-2.701-8.662-1.801-8.662-1.801" fill="#fff"/>
							<path d="m116.27 141.42c-1.115-0.172-2.336-0.562-3.463-0.381-1.061 0.168-2.125 0.385-3.158 0.676-0.982 0.275-3.461 1.697-4.488 1.221-2.99-1.391-4.703-6.33-5.322-9.232-0.51-2.391-1.613-4.702-2.686-6.876-2.439-4.951-5.953-10.29-11.014-12.854-2.285-1.157-7.406-3.337-10.074-2.014-0.762 0.378 0.209 0.971 0.773 0.691 0.707-0.352 3.068 0.33 4.063 0.586 3.641 0.941 6.451 2.413 9.053 5.104 3.902 4.035 6.943 9.705 8.48 15.091 1.037 3.634 2.637 9.679 6.994 10.676 0.455 0.104 0.893-0.046 1.301-0.224 1.576-0.686 2.955-1.25 4.658-1.629 1.713-0.383 2.563-0.213 4.361 0.063 0.62 0.08 1.36-0.78 0.52-0.91z" fill="#808080"/>
							<path d="m118 127.03c-1.105-2.465-4.424-5.955-5.273-7.434-8.412-14.814-21.219-24.549-36.148-32.449-7.201-3.818-15.148-6.954-20.76-13.465-4.373-5.086-7.73-11.075-9.371-17.642-1.074-4.261-1.613-8.616-1.617-12.947 0-9.416 2.568-18.729 7.895-26.749 0.404-0.639 1.1-0.997 1.797-0.985 0.16 0 0.316 0.02 0.475 0.047 2.273 0.344 3.252 1.999 3.186 3.644-0.002 1.481-0.566 3.051-1.096 4.366-1.955 4.806-2.951 10.175-2.951 15.508 0 3.469 0.422 6.919 1.271 10.188 2.359 9.061 7.111 17.757 15.154 22.81 4.094 2.576 8.428 4.263 12.965 5.763-0.67-2.191-1.09-4.456-1.225-6.787-0.098-1.734-0.424-4.471-0.424-7.078 0.012-2.166 0.207-4.248 1.061-5.732 0.934-1.609 2.027-2.426 3.197-2.435 2.48 0.142 3.861 3.208 3.957 5.771 0.174 9.101 3.1 17.02 10.654 22.127 4.389 2.965 8.832 5.756 12.934 9.151-0.031-0.802-0.045-1.603-0.045-2.403 0-4.775 0.553-9.557 1.816-14.189 0.354-1.294 1.17-4.954 2.33-8.34 1.23-3.363 2.496-6.59 4.828-7.021 0.225-0.029 0.443-0.04 0.648-0.04 1.064-0.014 1.91 0.386 2.396 1.062 0.482 0.672 0.613 1.493 0.613 2.327 0 1.365-0.373 2.842-0.646 3.946-1.408 5.71-5.996 19.985-4.777 30.142l3.049-11.986c1.105-1.801 1.67-4.139 3.621-4.383 0.15-0.018 0.295-0.027 0.432-0.027 0.857-0.014 1.58 0.363 1.967 0.965 0.393 0.596 0.502 1.308 0.508 2.047-0.01 2.295-1.146 5.162-1.379 5.854h-0.002c0 0.002 0 0.004-0.002 0.006h0.002c-0.002 0.014-0.012 0.029-0.016 0.043-1.48 4.428-2.691 9.221-2.688 13.898 0 1.9-0.109 3.736 0.348 5.571l0.105 0.405c0.838 3.521 2.639 6.449 4.902 9.666 0.021 0.137 0.041 0.289 0.041 0.462 0 0.652-0.254 1.479-1.076 1.853-1.375 0.598-1.463 0.754-1.551 0.951-0.133 0.28-0.27 1.053-1.17 2.313-1.336 1.882-3.029 4.083-5.48 5.001-0.609 0.225-1.193 0.336-1.746 0.336-2.637-0.036-0.691-1.795-1.793-4.228l-0.92 0.1z" fill="#fff"/>
								<path d="m118.59 126.8c-1.381-2.75-3.633-4.861-5.271-7.434-2.227-3.493-4.385-6.909-7.02-10.121-5.08-6.188-11.32-11.317-17.936-15.775-7.119-4.799-14.93-8.232-22.369-12.459-8.351-4.749-14.265-12.218-17.696-21.136-3.639-9.459-3.607-20.423-1.039-30.117 0.664-2.509 1.621-4.929 2.691-7.288 0.711-1.569 3.941-9.252 7.115-5.22 1.504 1.91-0.381 5.343-1.029 7.167-0.889 2.501-1.543 5.026-2 7.641-2.816 16.083 4.426 34.047 18.99 41.913 3.24 1.75 6.75 2.998 10.232 4.166 0.303 0.102 1.025-0.126 0.9-0.563-1.525-5.365-2.369-12.31-1.242-17.803 0.406-2.166 1.947-3.157 4.625-2.976 0.529 0.502 0.938 1.083 1.225 1.746 0.631 1.204 0.666 2.626 0.705 3.945 0.084 2.797 0.547 5.562 1.297 8.254 3.143 11.291 14.002 15.47 22.387 22.28 0.383 0.31 1.176 0.141 1.158-0.43-0.188-6.693 0.865-12.909 2.506-19.358 0.793-3.122 1.734-6.2 3.107-9.12 0.355-0.738 0.803-1.418 1.346-2.038 3.422-0.469 4.852 0.539 4.287 3.022-0.082 1.335-0.521 2.68-0.855 3.97-2.459 9.491-5.529 19.289-4.51 29.211 0.064 0.621 1.154 0.426 1.281-0.073 0.783-3.08 1.566-6.159 2.35-9.239 0.379-1.488 0.715-2.67 1.41-4.033 0.225-0.466 0.471-0.921 0.736-1.365 1.25 0.693 2.5 1.386 3.75 2.078-0.07 0.606-0.18 1.205-0.326 1.797-0.135 0.547-0.291 1.088-0.465 1.624-0.273 0.893-0.797 1.094 0.199 1.094-0.25 0-0.566 0.087-0.689 0.333-0.002 0.002-0.002 0.004-0.004 0.006-0.172 0.347 0.154 0.638 0.496 0.638-0.186-0.156-0.371-0.313-0.555-0.471-0.25 0.743-0.488 1.491-0.715 2.242-0.352 1.138-0.643 2.292-0.928 3.448-0.574 2.324-0.977 4.769-1.025 7.166-0.084 4.09 0.221 7.527 1.908 11.269 0.652 1.446 4.85 6.377 1.977 7.7-0.465 0.214-0.949 0.479-1.135 0.981-0.891 2.399-2.688 4.522-4.697 6.078-1.139 0.881-3.986 1.877-3.846-0.431 0.051-0.834-0.1-1.514-0.365-2.299-0.107-0.32-0.4-0.408-0.717-0.374-0.307 0.033-0.611 0.066-0.918 0.1-0.809 0.088-0.646 1.038 0.15 0.951 0.307-0.033 0.611-0.066 0.918-0.1-0.24-0.124-0.479-0.249-0.717-0.374 0.389 1.153-0.191 3.314 0.754 4.186 0.922 0.849 2.662 0.32 3.67 0.036 2.197-0.62 3.914-2.733 5.225-4.45 0.572-0.747 1.064-1.511 1.477-2.354 0.488-0.995 1.424-1.361 2.289-2.034 1.217-0.948 0.602-2.396-0.064-3.354-1.889-2.719-3.416-5.566-4.246-8.789-1.59-6.163 0.172-13.736 2.299-19.585 0.109-0.303-0.307-0.514-0.541-0.514h-0.002c0.164 0.211 0.33 0.425 0.494 0.638-0.229 0.109-0.457 0.219-0.686 0.327 0.328 0 0.625-0.136 0.736-0.457 0.682-1.93 2.934-7.468 0.143-8.857-2.768-1.378-4.537 0.407-5.766 2.811-2.09 4.095-2.721 9.072-3.852 13.521 0.426-0.024 0.854-0.049 1.279-0.073-0.746-7.271 0.824-14.604 2.568-21.629 0.652-2.635 1.398-5.245 2.078-7.873 0.668-2.577 1.586-5.649-0.563-7.718-1.209-1.165-3.395-0.633-4.627 0.098-2.416 1.433-3.361 5.45-4.172 7.914-2.553 7.742-3.961 15.772-3.732 23.927 0.387-0.143 0.771-0.286 1.158-0.429-6.1-4.952-14.041-8.39-18.764-14.79-1.916-2.597-3.07-5.681-3.832-8.789-0.791-3.231-0.406-6.648-1.295-9.822-0.957-3.426-5.08-5.367-7.381-1.907-1.824 2.743-1.76 5.909-1.621 9.097 0.17 3.918 0.504 7.844 1.58 11.625 0.301-0.188 0.602-0.376 0.9-0.563-9.469-3.176-17.508-7.563-22.855-16.278-5.045-8.225-6.918-18.181-5.773-27.691 0.551-4.586 2.57-8.612 3.568-13.051 0.611-2.719-0.938-4.625-3.467-5.257-2.273-0.568-3.369 1.597-4.348 3.196-2.391 3.91-4.039 8.241-5.209 12.656-4.42 16.686 0.398 36.565 14.201 47.526 6.471 5.139 14.549 8.102 21.662 12.223 7.453 4.315 14.396 9.472 20.4 15.657 3.479 3.584 6.488 7.587 9.113 11.828 1.953 3.157 4.658 5.907 6.324 9.223 0.27 0.52 1.5 0.14 1.19-0.48z" fill="#808080"/>
						<path d="m141.5 124.29s-8.988-8.564-12.469-6.551c-3.48 2.015-10.844 6.714-11.646 9.194-0.801 2.478 3.295 9.708 4.369 10.576 1.08 0.87 19.75-13.22 19.75-13.22z" fill="#fff"/>
						<path d="m121.44 137.9c-1.188-1.051-4.583-6.933-4.659-10.21 0-0.322 0.037-0.628 0.127-0.911 0.529-1.515 2.6-3.241 4.999-5.021 2.399-1.752 5.119-3.437 6.871-4.451 0.459-0.267 0.981-0.375 1.517-0.375 4.441 0.084 11.478 6.988 11.55 6.996l-0.345 0.361 0.345-0.361 0.427 0.406-0.472 0.355c-0.004 0.004-9.884 7.458-15.714 11.208-1.997 1.25-3.325 2.094-4.191 2.15-0.12-0.01-0.29-0.02-0.46-0.16zm8.86-19.97c-0.406 0-0.739 0.08-1.014 0.24-1.726 1-4.429 2.674-6.783 4.394-2.352 1.693-4.365 3.557-4.638 4.523-0.051 0.152-0.08 0.357-0.08 0.601-0.075 2.517 3.255 8.44 4.193 9.353 0.374-0.088 1.874-0.863 3.572-1.986 1.921-1.232 4.304-2.889 6.623-4.543 3.729-2.661 7.292-5.317 8.551-6.261-0.663-0.602-2.017-1.796-3.617-2.989-2.241-1.691-5.027-3.331-6.769-3.331-0.01 0.01-0.02 0.01-0.03 0.01z" fill="#808080"/>
							<path d="m198.75 126.93c-1.104 2.433 0.842 4.191-1.797 4.229-0.551 0-1.135-0.111-1.746-0.336-2.451-0.918-4.145-3.119-5.479-5.001-0.897-1.26-1.035-2.032-1.168-2.313-0.088-0.197-0.177-0.354-1.554-0.951-0.819-0.374-1.071-1.2-1.071-1.853 0-0.173 0.019-0.325 0.039-0.462 2.262-3.217 4.063-6.146 4.903-9.666l0.103-0.405c0.459-1.835 0.351-3.671 0.351-5.571 0.002-4.678-1.209-9.471-2.687-13.898-0.008-0.014-0.015-0.029-0.019-0.043h0.002c-0.002-0.002-0.004-0.004-0.004-0.006h-0.002c-0.229-0.691-1.369-3.558-1.377-5.854 0.004-0.739 0.113-1.451 0.508-2.047 0.386-0.602 1.109-0.979 1.965-0.965 0.14 0 0.281 0.01 0.435 0.027 1.951 0.244 2.517 2.582 3.621 4.383l3.05 11.986c1.219-10.156-3.369-24.432-4.779-30.142-0.273-1.104-0.644-2.581-0.646-3.946 0.004-0.834 0.133-1.655 0.615-2.327 0.482-0.676 1.332-1.075 2.396-1.062 0.205 0 0.424 0.011 0.646 0.04 2.334 0.43 3.601 3.657 4.827 7.021 1.162 3.386 1.979 7.046 2.334 8.34 1.265 4.633 1.814 9.414 1.814 14.189 0 0.801-0.016 1.602-0.045 2.403 4.1-3.396 8.545-6.188 12.934-9.151 7.554-5.107 10.479-13.026 10.654-22.127 0.096-2.563 1.477-5.629 3.955-5.771 1.168 0.009 2.264 0.825 3.199 2.435 0.854 1.484 1.049 3.566 1.059 5.732 0 2.607-0.324 5.344-0.422 7.078-0.135 2.331-0.555 4.596-1.223 6.787 4.533-1.5 8.867-3.187 12.963-5.763 8.043-5.053 12.795-13.749 15.154-22.81 0.848-3.268 1.271-6.719 1.271-10.188 0-5.333-0.996-10.702-2.953-15.508-0.527-1.314-1.093-2.885-1.097-4.366-0.063-1.645 0.912-3.3 3.187-3.644 0.156-0.027 0.315-0.047 0.475-0.047 0.701-0.012 1.393 0.346 1.797 0.985 5.328 8.019 7.895 17.333 7.895 26.749-0.002 4.331-0.543 8.687-1.614 12.947-1.644 6.566-5 12.556-9.373 17.642-5.609 6.511-13.56 9.646-20.759 13.465-14.932 7.9-27.735 17.635-36.149 32.449-0.851 1.479-4.168 4.969-5.271 7.434l-0.93-0.1z" fill="#fff"/>
								<path d="m198.11 126.89c-0.61 1.804 0.455 4.84-3.391 3.096-2.267-1.028-4.216-3.782-5.267-5.925-0.242-0.494-0.27-1.019-0.791-1.313-3.449-1.944 0.289-5.868 1.371-8.006 3.68-7.266 1.996-17.056-0.811-24.318-0.23 0.25-0.459 0.501-0.689 0.752 0.379 0 0.918-0.299 0.691-0.752-0.002-0.002-0.002-0.004-0.004-0.006-0.088-0.176-0.314-0.286-0.504-0.286 0.715 0-0.299-2.184-0.453-2.757-0.146-0.592-0.256-1.19-0.326-1.797 1.248-0.641 2.496-1.282 3.742-1.923 0.266 0.443 0.512 0.898 0.736 1.364 0.694 1.363 1.033 2.536 1.412 4.025 0.782 3.08 1.565 6.159 2.352 9.239 0.146 0.577 1.219 0.552 1.281-0.063 1.018-9.904-2-19.752-4.506-29.221-0.258-0.974-0.488-1.951-0.695-2.937-0.189-0.908-0.246-1.826-0.17-2.756 2.473-2.086 4.205-2.059 5.193 0.083 1.895 2.88 2.688 6.633 3.553 9.922 1.684 6.415 2.697 12.691 2.508 19.349-0.016 0.513 0.65 0.738 1.033 0.428 8.145-6.613 18.858-10.758 22.242-21.551 0.737-2.359 1.188-4.739 1.438-7.198 0.125-1.218 0.114-2.443 0.221-3.663 0.267-3.089 3.638-5.681 5.851-2.359 1.748 2.624 1.021 6.926 0.801 9.847-0.244 3.231-0.539 6.349-1.43 9.479-0.144 0.5 0.578 0.607 0.889 0.503 7.895-2.648 15.221-6.066 20.625-12.597 5.051-6.105 7.938-14.202 8.904-21.99 0.522-4.217 0.24-8.521-0.49-12.69-0.33-1.89-0.83-3.789-1.475-5.597-0.484-1.363-1.035-2.702-1.479-4.08-0.277-0.914-0.384-1.85-0.315-2.808 1.428-2.986 3.03-3.265 4.807-0.839 5.547 8.576 7.68 18.953 7.104 29.055-0.569 9.995-4.313 19.156-10.735 26.791-5.806 6.898-14.738 10.159-22.459 14.341-7.119 3.855-13.861 8.372-19.935 13.734-2.978 2.627-5.694 5.528-8.213 8.593-2.625 3.199-4.515 6.804-6.912 10.139-0.948 1.317-2.021 2.548-2.993 3.847-0.701 0.935-1.07 2.462-1.98 2.364-0.76-0.083-1.025 0.947-0.186 1.039 0.305 0.033 0.61 0.066 0.916 0.1 0.258 0.028 0.567-0.113 0.688-0.35 1.381-2.75 3.633-4.86 5.271-7.434 2.536-3.985 5.038-7.833 8.149-11.41 5.635-6.482 12.536-11.737 19.801-16.261 7.283-4.537 15.36-7.696 22.479-12.487 6.802-4.577 11.679-11.763 14.59-19.33 3.173-8.238 3.582-17.617 2.128-26.255-0.695-4.13-2.058-8.126-3.783-11.931-1.138-2.505-2.576-6.766-5.664-7.251-1.612-0.254-3.797 1.217-4.188 2.791-0.975 3.931 2.004 8.582 2.873 12.329 2.229 9.607 0.517 19.618-3.739 28.4-4.947 10.215-13.89 15.37-24.287 18.858 0.297 0.167 0.594 0.335 0.892 0.503 0.985-3.471 1.237-6.952 1.51-10.531 0.235-3.119 0.401-6.449-0.967-9.338-2.095-4.415-6.486-2.626-7.92 1.05-0.962 2.464-0.58 5.549-0.982 8.153-0.545 3.514-1.818 6.839-3.691 9.85-2.037 3.275-5.082 5.509-8.234 7.613-3.721 2.484-7.43 4.968-10.906 7.792 0.347 0.143 0.689 0.285 1.035 0.428 0.226-7.869-1.211-15.279-3.379-22.804-0.938-3.255-3.735-12.702-9.031-9.134-3.803 2.564 0.302 11.478 1.179 14.872 1.875 7.264 3.562 14.938 2.787 22.474 0.428-0.021 0.854-0.042 1.282-0.063-1.133-4.45-1.762-9.433-3.852-13.528-1.109-2.175-3.141-4.479-5.764-2.712-2.715 1.831-0.635 6.741 0.176 9.044 0.063 0.179 0.334 0.287 0.506 0.287-0.168-0.094-0.334-0.187-0.5-0.28 0.23-0.251 0.459-0.502 0.689-0.753-0.416 0-0.869 0.291-0.691 0.753 2.201 5.694 3.768 13.425 2.26 19.444-0.813 3.246-2.397 6.025-4.244 8.779-0.969 1.445-1.026 2.635 0.449 3.787 0.56 0.435 1.312 0.415 1.58 1.142 0.389 1.047 0.982 1.954 1.66 2.839 1.318 1.727 3.014 3.809 5.221 4.43 0.896 0.252 2.939 0.839 3.676-0.135 0.877-1.161 0.302-2.852 0.763-4.211 0.21-0.67-1.09-0.7-1.3-0.08z" fill="#808080"/>
						<path d="m176.16 124.29s8.987-8.564 12.469-6.551c3.479 2.015 10.844 6.714 11.645 9.194 0.801 2.478-3.293 9.708-4.367 10.576-1.08 0.87-19.75-13.22-19.75-13.22z" fill="#fff"/>
						<path d="m191.57 135.9c-1.944-1.251-4.335-2.912-6.661-4.572-4.654-3.319-9.05-6.635-9.052-6.637l0.302-0.398 0.346 0.361-0.346-0.361-0.302 0.398-0.472-0.355 0.429-0.405c0.071-0.01 7.106-6.912 11.549-6.997 0.535 0 1.056 0.109 1.515 0.374 1.756 1.016 4.476 2.699 6.873 4.452 2.398 1.78 4.469 3.504 4.998 5.022 0.092 0.285 0.125 0.589 0.127 0.911-0.078 3.275-3.477 9.159-4.656 10.21-0.176 0.135-0.338 0.145-0.459 0.146-0.87-0.06-2.19-0.9-4.19-2.15zm0.54-0.84c1.7 1.123 3.203 1.899 3.573 1.985 0.932-0.903 4.263-6.834 4.189-9.352 0-0.248-0.029-0.454-0.076-0.603-0.273-0.964-2.287-2.829-4.639-4.522-2.355-1.72-5.056-3.395-6.781-4.394-0.277-0.159-0.609-0.24-1.016-0.24-1.74-0.025-4.549 1.627-6.806 3.331-1.603 1.193-2.958 2.386-3.619 2.987 2.06 1.52 10.17 7.57 15.19 10.8z" fill="#808080"/>
							<path d="m198.78 135.25s9.787-12.938 23.854-19.015c14.061-6.073 17.774-5.625 17.774-5.625s2.585 0.787 1.91 4.275c-0.67 3.489-4.39 20.027-9.563 25.539-5.174 5.515-15.75 4.839-22.727 7.652-6.975 2.813-9.787 7.088-9.787 7.088l-1.45-19.93z" fill="#fff"/>
								<path d="m199.28 135.51c5.864-7.699 13.932-14.308 22.655-18.433 5.072-2.396 10.606-4.595 16.125-5.725 2.843-0.582 4.226 0.48 3.488 4.119-0.943 4.66-2.222 9.269-3.755 13.767-2.059 6.041-4.534 11.729-10.838 14.188-9.231 3.601-21.004 2.288-27.313 11.582 0.412 0.019 0.822 0.032 1.233 0.051-0.487-6.64-0.975-13.276-1.463-19.914-0.047-0.635-1.332-0.442-1.283 0.203 0.486 6.638 0.976 13.274 1.464 19.914 0.043 0.608 1.008 0.383 1.233 0.051 3.494-5.147 10.135-7.399 15.92-8.547 5.851-1.161 12.679-1.772 16.894-6.515 3.698-4.164 5.39-10.449 6.926-15.669 0.97-3.292 3.859-9.912 1.791-13.186-0.868-1.378-2.133-1.349-3.516-1.155-5.277 0.735-10.451 3.03-15.313 5.069-9.781 4.104-18.82 11.213-25.264 19.674-0.49 0.65 0.63 1.03 1.01 0.53z" fill="#808080"/>
								<path d="m201.66 141.87l2.771-0.427s4.723 0.675 6.752 2.024c2.021 1.35 6.299-4.5 7.197-9.225 0.899-4.725 7.09-17.438 14.176-20.137 7.09-2.701 8.662-1.801 8.662-1.801" fill="none"/>
								<path d="m201.73 142.32c1.494-0.229 2.394-0.46 3.733-0.211 2.172 0.403 4.302 1.883 6.412 2.014 4.025 0.246 6.623-7.439 7.23-10.297 1.145-5.371 4.527-10.831 8.041-14.951 2.428-2.844 5.227-4.313 8.748-5.432 1.055-0.335 3.742-1.33 4.916-0.747 0.527 0.262 1.525-0.43 0.807-0.787-2.615-1.297-7.705 1.104-9.93 2.047-4.965 2.103-8.373 7.701-10.797 12.226-2.803 5.234-3.195 11.829-7.482 16.139-1.477 1.484-6.027-0.84-7.951-1.196-1.317-0.244-2.553 0.086-3.873 0.289-0.8 0.13-0.66 1.03 0.14 0.91z" fill="#808080"/>
					<path d="m203.12 144.86c-1.457-11.844-11.845-28.529-43.382-28.6v-0.002c-0.035 0-0.064 0.001-0.096 0.001-0.035 0-0.068-0.001-0.1-0.001v0.002c-31.537 0.07-41.924 16.756-43.379 28.6-2.42 19.725 4.094 60.545 16.453 78.76 11.195 16.5 20.07 16.096 27.025 16.051 6.95 0.045 15.825 0.449 27.018-16.051 12.36-18.22 18.88-59.04 16.46-78.76z" fill="#fff"/>
						<path d="m203.75 144.75c-0.994-7.567-4.979-14.286-10.782-19.175-3.775-3.178-8.267-5.367-12.914-6.939-1.966-0.664-19.684-4.364-19.684-2.487 0-0.252-0.334-0.443-0.553-0.44-0.064 0.001-0.129 0.001-0.195 0-0.402-0.004-0.73 0.225-0.73 0.644v0.002c0.244-0.215 0.488-0.43 0.73-0.644-12.773 0.109-26.219 2.744-35.629 12.011-6.762 6.661-8.744 15.208-8.959 24.383-0.336 14.153 1.865 28.521 5.236 42.231 3.332 13.555 8.252 27.074 18.006 37.375 3.629 3.832 8.129 6.815 13.32 7.955 3.619 0.795 7.498 0.619 11.182 0.526 11.847-0.297 20.14-9.122 25.939-18.715 6.867-11.356 10.189-25.082 12.604-37.994 2.34-12.59 3.91-25.95 2.41-38.74-0.082-0.707-1.364-0.506-1.282 0.203 1.592 13.613-0.316 27.797-2.951 41.158-2.84 14.402-7.104 29.268-16.187 41.049-4.194 5.443-9.617 10.226-16.526 11.56-3.902 0.754-8.334 0.603-12.285 0.271-13.932-1.168-22.678-15.892-27.457-27.531-4.502-10.969-7.113-22.762-8.895-34.451-1.574-10.338-2.543-21.07-1.441-31.506 0.773-7.32 4.486-13.923 9.994-18.749 8.867-7.768 21.322-9.859 32.725-9.958 0.404-0.003 0.73-0.219 0.73-0.644v-0.002c-0.242 0.215-0.486 0.43-0.73 0.644 0.303 0.026 0.184-0.121-0.357-0.438 0 0.255 0.334 0.438 0.553 0.44 11.572 0.1 23.697 2.248 32.789 9.906 5.463 4.601 9.109 11.175 10.039 18.253 0.1 0.71 1.39 0.51 1.29-0.2z" fill="#808080"/>
					<path d="m203.55 192.26c-1.469-5.377-11.936-18.278-43.714-18.313v-0.002c-0.037 0-0.064 0.002-0.1 0.002-0.033 0-0.066-0.002-0.096-0.002v0.002c-31.781 0.033-42.25 12.936-43.717 18.313-2.439 8.955 4.125 27.488 16.58 35.761 11.287 7.489 20.229 7.308 27.232 7.287 7.007 0.021 15.949 0.202 27.229-7.287 12.46-8.27 19.03-26.81 16.59-35.76z" fill="#fff"/>
						<path d="m204.19 192.16c-1.457-5.043-6.289-8.766-10.601-11.295-4.108-2.41-8.696-3.953-13.303-5.078-1.988-0.484-19.811-3.086-19.811-1.941 0-0.2-0.398-0.211-0.516-0.209h-0.195c-0.229-0.002-0.768 0.103-0.768 0.412v0.002c0.256-0.139 0.512-0.274 0.768-0.414-12.516 0.078-26.119 1.748-36.637 9.119-6.422 4.5-9.119 9.965-8.039 17.81 1.941 14.104 11.814 26.834 25.023 32.039 6.111 2.405 12.32 3.032 18.834 3.019 6.291-0.015 12.311-0.302 18.33-2.33 9.175-3.093 16.502-9.271 21.461-17.498 4.01-6.62 7.41-15.83 5.47-23.63-0.104-0.426-1.379-0.188-1.282 0.203 1.485 5.998-0.394 12.512-2.697 18.055-3.058 7.354-8.082 13.812-14.783 18.146-7.398 4.789-15.555 6.432-24.229 6.436-7.73 0.004-14.906-0.514-22.061-3.76-13.248-6.012-23.381-20.84-23.063-35.629 0.178-8.307 8.42-13.605 15.234-16.547 8.811-3.805 18.709-4.746 28.205-4.805 0.229 0 0.768-0.1 0.768-0.412v-0.002c-0.256 0.139-0.512 0.275-0.768 0.414 0.248 0.016 0.141-0.053-0.32-0.209 0 0.201 0.396 0.209 0.516 0.209 11.203 0.068 22.912 1.475 32.818 7.078 4.199 2.375 8.973 6.158 10.379 11.024 0.11 0.43 1.38 0.17 1.27-0.2z" fill="#808080"/>
					<path d="m129.15 156.59c0.826 1.554 2.215 3.177 3.898 3.8 3.605 1.33 6.273-1.912 7.988-4.646 0.414-0.662-0.834-0.943-1.195-0.367-1.605 2.563-4.129 5.6-7.256 3.41-0.93-0.65-1.713-1.681-2.242-2.679-0.32-0.6-1.54-0.17-1.19 0.49z" fill="#808080"/>
					<path d="m178.5 156.52c0.877 1.646 2.279 3.084 4.045 3.734 3.465 1.279 6.306-2.195 7.888-4.723 0.19-0.306-1.041-0.31-1.263 0.045-1.721 2.748-4.369 5.756-7.496 3.086-0.789-0.676-1.471-1.574-1.959-2.49-0.17-0.34-1.43-0.07-1.21 0.34z" fill="#808080"/>
					<path d="m140.95 225.39c-3.383 0.647-4.754-4.029-5.373-6.472-0.441-1.735-0.762-3.571-0.564-5.36 0.137-1.233 1.98-3.187 3.098-1.869 0.252 0.3 0.439 0.66 0.633 0.998 1.18 2.086 1.795 4.549 2.287 6.877 0.213 1.017 1.207 5.283-0.17 5.854-0.791 0.328-0.178 1.021 0.469 0.754 2.48-1.03 1.256-5.521 0.859-7.403-0.371-1.763-1.574-8.062-4.016-8.369-5.189-0.655-4.645 5.33-3.881 8.724 0.75 3.334 2.652 7.897 6.791 7.104 0.77-0.14 0.65-0.98-0.14-0.83z" fill="#808080"/>
					<path d="m176.18 226.07c3.652 0.701 5.546-2.275 6.646-5.361 0.905-2.547 2.731-10.901-2.406-10.252-3.021 0.381-3.803 4.168-4.529 6.666-0.514 1.764-2.414 7.853 0.105 8.896 0.321 0.135 1.502-0.262 1.065-0.443-2.978-1.234 0.584-10.344 1.424-12.27 0.58-1.326 1.302-3.18 3.218-1.471 1.661 1.483 0.891 4.447 0.559 6.242-0.434 2.334-1.84 8.125-5.23 7.475-0.33-0.07-1.52 0.38-0.85 0.51z" fill="#808080"/>
					<path stroke="#fff" d="m209.8 119.85c-1.598-2.844-7.014-12.602-16.086-16.242-1.932-3.279-4.771-6.1-8.491-5.967 0 0-17.136-9.551-21.633 9.553 0 0-4.639-0.563-6.807 1.182-1.678-8.672-12.688-17.484-28.682-14.141-21.99 4.6-32.988 35.189-32.988 35.189 5.111 2.907 12.992 4.256 20.232 4.778-0.268 5.314 1.063 10.354 4.924 13.822 0 0 4.158-3.473 12.992-6.445 4.195-1.41 9.047-4.148 12.607-7.447 6.059 3.808 15.344 16.646 15.344 16.646 1.934-1.748 4.021-7.74 5.221-11.619 9.004 6.191 22.404 7.973 29.078 7.377 9.199-0.82 17.113-7.261 21.771-5 0.01-0.01-5.43-18.08-7.47-21.69z" fill="#fff"/>
					<g opacity=".9">
							<path d="m95.112 129.42s10.998-30.589 32.988-35.189c21.994-4.598 34.592 13.795 26.393 23.194 0 0 3 8.196-2.596 13.194-5.602 5-14.998 2.602-20.197 3.399-5.19 0.81-26.38 1.21-36.578-4.59z" fill="#A3B084"/>
							<path d="m97.508 128.22s25.795-13.996 46.787-10.198" fill="#A3B084"/>
								<path d="m97.508 128.22s25.795-13.996 46.787-10.198" fill="none"/>
								<path d="m97.877 128.46c13.557-7.316 30.723-12.686 46.141-10.096 0.484 0.082 1.396-0.535 0.557-0.676-15.854-2.664-33.504 2.781-47.436 10.301-0.755 0.41 0.3 0.71 0.733 0.48z" fill="#fff"/>
							<path d="m100.31 123.62s14.596-5.398 18.992-5.197" fill="#A3B084"/>
								<path d="m100.31 123.62s14.596-5.398 18.992-5.197" fill="none"/>
								<path d="m100.55 124.02c5.707-2.104 12.504-5.207 18.65-5.144 0.701 0.008 1.07-0.882 0.209-0.891-6.414-0.067-13.4 3.063-19.334 5.251-0.812 0.29-0.195 1.02 0.47 0.78z" fill="#fff"/>
							<path d="m104.71 120.22s16.395-6.195 27.191-3.598" fill="none"/>
							<path d="m104.96 120.67c8.166-3.059 18.031-5.459 26.688-3.568 0.656 0.143 1.346-0.764 0.516-0.945-9.018-1.968-19.188 0.441-27.693 3.627-0.81 0.29-0.22 1.14 0.48 0.88z" fill="#fff"/>
							<path d="m102.91 119.23s20.793-13.198 33.391-4.397" fill="none"/>
							<path d="m103.4 119.36c8.984-5.659 22.672-10.707 32.373-4.297 0.314 0.208 1.521-0.164 1.063-0.467-10.268-6.786-24.938-1.468-34.408 4.498-0.59 0.38 0.67 0.46 0.98 0.27z" fill="#fff"/>
							<path d="m105.71 115.63s23.193-16.195 35.592-0.799" fill="none"/>
							<path d="m106.19 115.75c10.031-6.952 25.459-11.489 34.5-0.747 0.25 0.298 1.465-0.042 1.215-0.338-9.486-11.271-26.18-6.428-36.682 0.851-0.56 0.4 0.69 0.43 0.97 0.24z" fill="#fff"/>
							<path d="m107.11 111.63s32.189-19.193 36.986 4.8" fill="none"/>
							<path d="m107.6 111.78c4.639-2.752 9.818-4.841 15.037-6.156 4.197-1.059 8.752-1.442 12.881 0.08 4.645 1.715 6.951 6.262 7.938 10.825 0.098 0.449 1.377 0.225 1.283-0.203-4.086-18.904-26.375-11.815-38.117-4.851-0.61 0.37 0.64 0.51 0.98 0.31z" fill="#fff"/>
							<path d="m122.7 101.03s22.393-3.999 23.592 14.997" fill="none"/>
							<path d="m122.75 101.35c3.559-0.62 7.371-0.444 10.877 0.354 7.252 1.648 11.434 7.133 12.021 14.425 0.035 0.438 1.322 0.263 1.283-0.203-0.617-7.647-5.051-12.954-12.467-14.819-3.762-0.945-7.988-1.064-11.816-0.396-0.75 0.14-0.66 0.79 0.11 0.65z" fill="#fff"/>
							<path d="m133.9 97.032s18.596 4.4 15.193 18.996" fill="none"/>
							<path d="m133.64 97.476c8.678 2.098 16.844 8.808 14.816 18.528-0.137 0.654 1.156 0.625 1.277 0.047 2.127-10.197-6.453-17.261-15.57-19.464-0.63-0.149-1.36 0.69-0.53 0.89z" fill="#fff"/>
							<path d="m103.11 129.02s14.191-5.599 18.793-8.397" fill="#A3B084"/>
								<path d="m103.11 129.02s14.191-5.599 18.793-8.397" fill="none"/>
								<path d="m103.36 129.48c6.377-2.52 13.023-4.976 18.939-8.473 0.73-0.433-0.197-1.104-0.785-0.756-5.814 3.438-12.377 5.845-18.648 8.322-0.8 0.31-0.21 1.18 0.49 0.91z" fill="#fff"/>
							<path d="m108.71 130.02s22.393-9.198 23.992-11.199" fill="#A3B084"/>
								<path d="m108.71 130.02s22.393-9.198 23.992-11.199" fill="none"/>
								<path d="m108.97 130.54c4.027-1.655 8.033-3.366 12.018-5.123 2.703-1.19 5.393-2.413 8.039-3.724 1.381-0.685 3.125-1.386 4.195-2.543 0.563-0.61-0.535-1.202-1.035-0.66-1.141 1.235-3.195 1.929-4.67 2.651-2.729 1.332-5.506 2.561-8.285 3.78-3.574 1.567-7.168 3.093-10.777 4.577-0.77 0.31-0.21 1.34 0.53 1.03z" fill="#fff"/>
							<path d="m115.11 130.82s17.395-7.797 21.594-11.396" fill="#A3B084"/>
								<path d="m115.11 130.82s17.395-7.797 21.594-11.396" fill="none"/>
								<path d="m115.35 131.28c7.227-3.244 15.576-6.407 21.74-11.471 0.652-0.536-0.242-1.218-0.787-0.77-6.096 5.009-14.293 8.107-21.449 11.32-0.76 0.35-0.19 1.23 0.5 0.92z" fill="#fff"/>
							<path d="m118.31 132.42s21.387-6.597 22.99-10.597" fill="#A3B084"/>
								<path d="m118.31 132.42s21.387-6.597 22.99-10.597" fill="none"/>
								<path d="m118.54 132.8c3.893-1.204 7.74-2.567 11.535-4.049 3.426-1.338 10.035-3.174 11.809-6.804 0.313-0.642-0.941-0.733-1.176-0.252-0.816 1.671-3.025 2.615-4.588 3.428-2.51 1.304-5.158 2.348-7.795 3.361-3.375 1.298-6.801 2.484-10.256 3.554-0.81 0.26-0.18 0.97 0.48 0.76z" fill="#fff"/>
							<path d="m124.9 132.82s17.396-3.797 18.795-11.795" fill="#A3B084"/>
								<path d="m124.9 132.82s17.396-3.797 18.795-11.795" fill="none"/>
								<path d="m124.97 133.23c6.516-1.444 17.697-4.655 19.365-12.194 0.133-0.602-1.158-0.543-1.273-0.021-1.551 7.012-12.096 10.038-18.223 11.396-0.78 0.16-0.67 0.99 0.12 0.81z" fill="#fff"/>
							<path d="m137.5 131.22s10.199 0.602 10.596-9.396" fill="#A3B084"/>
								<path d="m137.5 131.22s10.199 0.602 10.596-9.396" fill="none"/>
								<path d="m137.38 131.58c6.113 0.321 10.986-3.701 11.354-9.858 0.027-0.438-1.252-0.308-1.283 0.203-0.324 5.42-4.359 9.222-9.834 8.935-0.64-0.03-1.11 0.68-0.24 0.72z" fill="#fff"/>
					</g>
					<g opacity=".9">
							<path d="m163.59 107.19s-11.518-1.404-6.744 7.021c0 0 4.217-3.931 12.082 1.406 7.865 5.339 19.104 1.687 21.634 3.091 2.526 1.404 5.899 4.214 5.899 4.214s0-7.586 0.277-10.115c0.285-2.527-3.65-15.449-11.516-15.17 0 0.01-17.14-9.541-21.63 9.56z" fill="#90A83A"/>
							<path d="m193.93 119.55c-3.373-7.585-24.164-10.113-24.164-10.113" fill="#90A83A"/>
								<path d="m193.93 119.55c-3.373-7.585-24.164-10.113-24.164-10.113" fill="none"/>
								<path d="m194.54 119.36c-2.267-4.584-8.359-6.488-12.886-7.842-3.771-1.129-7.696-1.949-11.604-2.434-0.5-0.062-1.398 0.6-0.553 0.705 3.381 0.418 6.741 1.128 10.03 2 4.771 1.264 11.433 3.153 13.804 7.951 0.2 0.4 1.45 0.11 1.21-0.39z" fill="#fff"/>
							<path d="m172.86 108.03s16.856-3.089 20.229 5.901" fill="#90A83A"/>
								<path d="m172.86 108.03s16.856-3.089 20.229 5.901" fill="none"/>
								<path d="m172.92 108.46c6.359-1.139 16.599-1.356 19.56 5.689 0.211 0.497 1.453 0.172 1.203-0.422-3.151-7.501-14.16-7.318-20.896-6.113-0.78 0.13-0.65 0.98 0.14 0.84z" fill="#fff"/>
							<path d="m175.11 106.35s10.955-2.246 16.856 2.81" fill="#90A83A"/>
								<path d="m175.11 106.35s10.955-2.246 16.856 2.81" fill="none"/>
								<path d="m175.18 106.83c5.349-1.06 11.844-0.834 16.265 2.657 0.479 0.379 1.614-0.204 1.03-0.666-4.767-3.765-11.67-4.107-17.449-2.962-0.78 0.16-0.64 1.13 0.16 0.97z" fill="#fff"/>
							<path d="m169.49 108.03s6.465-8.427 18.54-4.214" fill="#90A83A"/>
								<path d="m169.49 108.03s6.465-8.427 18.54-4.214" fill="none"/>
								<path d="m170 108.33c4.213-5.366 11.715-5.967 17.775-4.01 0.682 0.221 1.313-0.739 0.506-1-6.557-2.117-14.748-1.386-19.307 4.418-0.51 0.64 0.6 1.13 1.02 0.59z" fill="#fff"/>
							<path d="m167.24 107.19s5.899-8.148 10.678-7.304" fill="#90A83A"/>
								<path d="m167.24 107.19s5.899-8.148 10.678-7.304" fill="none"/>
								<path d="m167.83 107.33c2.059-2.82 5.948-7.491 9.823-7.008 0.597 0.074 1.371-0.753 0.529-0.857-4.765-0.594-8.986 4.114-11.531 7.6-0.41 0.57 0.85 0.71 1.18 0.27z" fill="#fff"/>
							<path d="m167.52 110.56s14.328 1.686 17.14 6.461" fill="#90A83A"/>
								<path d="m167.52 110.56s14.328 1.686 17.14 6.461" fill="none"/>
								<path d="m167.43 111.08c5.037 0.607 13.589 1.619 16.636 6.176 0.362 0.545 1.592 0.126 1.194-0.466-3.356-5.021-12.125-6.079-17.645-6.745-0.76-0.08-1.03 0.94-0.19 1.04z" fill="#fff"/>
							<path d="m166.68 112.53s10.957 1.968 11.802 4.496" fill="#90A83A"/>
								<path d="m166.68 112.53s10.957 1.968 11.802 4.496" fill="none"/>
								<path d="m166.42 113c1.562 0.284 3.107 0.645 4.644 1.043 1.903 0.494 5.912 1.178 6.815 3.211 0.254 0.569 1.484 0.189 1.197-0.454-0.844-1.894-3.836-2.597-5.607-3.158-2.131-0.674-4.334-1.181-6.532-1.58-0.65-0.12-1.36 0.79-0.52 0.94z" fill="#fff"/>
					</g>
					<g opacity=".9">
							<path d="m167.05 117.86s-13.948-1.296-8.339 12.256c5.607 13.55 27.602 17.236 36.798 16.416 9.199-0.818 17.113-7.26 21.771-5 0 0-5.445-18.072-7.482-21.684-2.034-3.617-10.246-18.437-24.301-17.595-14.06 0.83-21.3 7.53-18.45 15.6z" fill="#B9D986"/>
							<path d="m215.32 140.4s-22.722-18.818-36.556-19.828" fill="#B9D986"/>
								<path d="m215.32 140.4s-22.722-18.818-36.556-19.828" fill="none"/>
								<path d="m215.84 140.1c-4.454-3.683-9.209-7.038-14.063-10.166-6.836-4.402-14.637-9.04-22.901-9.789-0.691-0.063-1.07 0.765-0.217 0.842 8.662 0.785 16.932 6.127 24.008 10.795 4.18 2.756 8.27 5.715 12.133 8.906 0.4 0.33 1.58-0.15 1.04-0.59z" fill="#fff"/>
								<path d="m214 137.27s-13.805-15.039-25.789-14.141" fill="none"/>
								<path d="m214.61 137.09c-6.493-7.028-16.207-14.765-26.271-14.289-0.6 0.029-1.125 0.699-0.246 0.658 9.605-0.457 19.113 7.289 25.307 13.994 0.29 0.33 1.51-0.03 1.21-0.36z" fill="#fff"/>
								<path d="m212.73 133.39s-10.937-13.695-29.308-12.934" fill="none"/>
								<path d="m213.24 133.03c-7.002-8.675-18.778-13.424-29.729-13.128-0.773 0.021-1.018 1.146-0.172 1.123 10.662-0.288 22.063 4.29 28.883 12.739 0.45 0.56 1.52-0.11 1.02-0.73z" fill="#fff"/>
								<path d="m212.56 130.43s-8.356-16.973-31.994-11.315" fill="none"/>
								<path d="m213.16 130.24c-5.927-11.844-21.037-14.124-32.656-11.481-0.758 0.172-0.662 0.893 0.113 0.717 11.246-2.56 25.627-0.26 31.334 11.15 0.22 0.41 1.47 0.12 1.22-0.39z" fill="#fff"/>
								<path d="m211.05 125.29s-19.27-20.389-33.58-4.668" fill="none"/>
								<path d="m211.57 124.96c-9.121-9.573-24.188-15.59-34.604-4.604-0.56 0.589 0.586 0.982 1.016 0.531 6.488-6.843 14.779-6.842 22.74-2.663 3.582 1.881 7.018 4.456 9.816 7.395 0.41 0.44 1.53-0.12 1.02-0.66z" fill="#fff"/>
								<path d="m198.03 111.42s-16.262-7.106-21.877 8.137" fill="none"/>
								<path d="m198.42 110.99c-9.088-3.906-19.104-1.196-22.868 8.399-0.283 0.72 0.95 0.94 1.188 0.336 2.264-5.77 6.605-9.367 12.902-9.443 2.654-0.031 5.543 0.521 7.982 1.569 0.6 0.24 1.55-0.55 0.8-0.87z" fill="#fff"/>
								<path d="m195.7 107.92s-20.39-4.104-20.851 11.686" fill="none"/>
								<path d="m195.95 107.41c-9.459-1.863-21.16 0.767-21.74 12.154-0.039 0.75 1.248 0.779 1.283 0.09 0.536-10.545 11.18-12.944 19.955-11.217 0.71 0.14 1.34-0.86 0.51-1.02z" fill="#fff"/>
								<path d="m183.65 105.46s-11.239 3.936-10.444 13.326" fill="none"/>
								<path d="m183.4 105c-5.934 2.119-11.206 7.24-10.838 13.888 0.037 0.67 1.32 0.477 1.283-0.203-0.341-6.13 4.606-10.821 10.051-12.765 0.81-0.29 0.23-1.17-0.49-0.92z" fill="#fff"/>
							<path d="m175.24 106.45s-5.921 2.394-4.439 11.474" fill="#B9D986"/>
								<path d="m175.24 106.45s-5.921 2.394-4.439 11.474" fill="none"/>
								<path d="m174.98 105.95c-4.614 1.938-5.448 7.739-4.823 12.076 0.104 0.722 1.387 0.519 1.282-0.203-0.536-3.731-0.032-9.157 4.05-10.871 0.78-0.34 0.22-1.32-0.51-1.01z" fill="#fff"/>
							<path d="m210.39 140s-17.011-8.09-20.72-13.02" fill="#B9D986"/>
								<path d="m210.39 140s-17.011-8.09-20.72-13.02" fill="none"/>
								<path d="m210.78 139.54c-2.82-1.346-5.593-2.799-8.328-4.306-4.199-2.308-9.226-4.816-12.273-8.621-0.434-0.54-1.518 0.102-1.023 0.719 2.838 3.541 7.357 5.883 11.223 8.086 3.14 1.791 6.354 3.47 9.615 5.025 0.62 0.31 1.52-0.54 0.78-0.9z" fill="#fff"/>
							<path d="m205.11 140.78s-18.215-4.502-21.248-15.911" fill="#B9D986"/>
								<path d="m205.11 140.78s-18.215-4.502-21.248-15.911" fill="none"/>
								<path d="m205.38 140.34c-8.146-2.045-18.316-6.936-20.869-15.573-0.176-0.593-1.453-0.368-1.283 0.203 2.668 9.031 13.113 14.111 21.627 16.248 0.6 0.15 1.34-0.67 0.52-0.88z" fill="#fff"/>
							<path d="m198.04 143.01s-17.299-5.607-18.483-20.16" fill="#B9D986"/>
								<path d="m198.04 143.01s-17.299-5.607-18.483-20.16" fill="none"/>
								<path d="m198.29 142.48c-8.816-2.904-17.097-10.118-18.09-19.725-0.076-0.743-1.359-0.539-1.283 0.203 1.035 10.023 9.686 17.567 18.879 20.596 0.72 0.23 1.29-0.82 0.49-1.08z" fill="#fff"/>
							<path d="m191.35 144.25s-16.996-11.084-14.781-21.402" fill="#B9D986"/>
								<path d="m191.35 144.25s-16.996-11.084-14.781-21.402" fill="none"/>
								<path d="m191.75 143.83c-6.502-4.271-16.065-12.268-14.543-20.961 0.119-0.685-1.172-0.669-1.279-0.059-1.6 9.134 8.23 17.379 15.021 21.843 0.53 0.35 1.48-0.37 0.8-0.82z" fill="#fff"/>
								<path d="m184.01 142.98s-17.112-12.746-9.776-20.64" fill="none"/>
								<path d="m184.54 142.73c-5.224-3.918-15.66-13.395-9.726-20.313 0.379-0.44-0.894-0.462-1.16-0.15-6.198 7.226 4.354 16.858 9.828 20.966 0.33 0.24 1.54-0.15 1.06-0.51z" fill="#fff"/>
							<path d="m173.44 138.38s-11.721-11.867-1.729-16.511" fill="#B9D986"/>
								<path d="m173.44 138.38s-11.721-11.867-1.729-16.511" fill="none"/>
								<path d="m173.95 138c-3.939-4.033-9.058-11.995-1.98-15.61 0.746-0.381 0.199-1.412-0.516-1.047-7.915 4.045-3.185 12.638 1.479 17.412 0.52 0.53 1.59-0.17 1.02-0.75z" fill="#fff"/>
							<path d="m167.33 134.64s-7.302-8.191 0.498-13.552" fill="#B9D986"/>
								<path d="m167.33 134.64s-7.302-8.191 0.498-13.552" fill="none"/>
								<path d="m167.85 134.32c-3.455-3.947-4.23-9.478 0.366-12.891 0.685-0.507-0.25-1.073-0.772-0.686-5.082 3.773-4.563 9.719-0.629 14.213 0.38 0.44 1.52-0.07 1.03-0.63z" fill="#fff"/>
					</g>
					<g opacity=".9">
							<path d="m151.51 112.69s11.35-5.465 18.125 3.975c6.771 9.439-2.194 19.046-2.194 19.046s-3.297 12.42-6.229 15.067-9.701-13.413-15.738-16.892c-6.05-3.48-7.51-20.04 6.03-21.2z" fill="#80A643"/>
							<path d="m153.34 114.18s8.787 22.189 7.688 33.947" fill="#80A643"/>
								<path d="m153.34 114.18s8.787 22.189 7.688 33.947" fill="none"/>
								<path d="m152.7 114.28c1.621 4.112 3 8.329 4.254 12.565 2.02 6.815 3.986 14.214 3.432 21.383-0.025 0.334 1.25 0.235 1.283-0.203 0.559-7.188-1.443-14.542-3.43-21.384-1.232-4.24-2.635-8.455-4.256-12.564-0.15-0.41-1.39-0.12-1.27 0.2z" fill="#fff"/>
							<path d="m156.27 116s6.59 10.268 5.859 19.375" fill="#80A643"/>
								<path d="m156.27 116s6.59 10.268 5.859 19.375" fill="none"/>
								<path d="m155.66 116.18c3.57 5.631 6.178 12.57 5.822 19.297-0.02 0.385 1.26 0.266 1.283-0.203 0.359-6.77-2.295-13.78-5.893-19.453-0.21-0.36-1.46-0.06-1.21 0.35z" fill="#fff"/>
								<path d="m159.2 116.16s9.701 13.913 3.113 27.326" fill="none"/>
								<path d="m158.6 116.39c5.326 7.746 7.103 18.29 3.117 26.937-0.32 0.693 0.924 0.896 1.188 0.321 4.098-8.89 2.383-19.73-3.107-27.717-0.36-0.52-1.59-0.11-1.2 0.46z" fill="#fff"/>
							<path d="m160.3 114.68s6.77 6.293 5.488 13.745" fill="#80A643"/>
								<path d="m160.3 114.68s6.77 6.293 5.488 13.745" fill="none"/>
								<path d="m159.78 114.98c3.586 3.391 6.043 8.445 5.371 13.422-0.086 0.643 1.199 0.584 1.274 0.033 0.707-5.245-1.825-10.492-5.606-14.066-0.39-0.36-1.55 0.13-1.03 0.62z" fill="#fff"/>
							<path d="m164.88 116.16s5.854 6.955 2.013 13.746" fill="#80A643"/>
								<path d="m164.88 116.16s5.854 6.955 2.013 13.746" fill="none"/>
								<path d="m164.28 116.37c3.089 3.753 4.287 8.976 2.024 13.414-0.319 0.631 0.937 0.718 1.177 0.246 2.371-4.652 1.271-10.109-1.998-14.078-0.35-0.41-1.58-0.04-1.2 0.42z" fill="#fff"/>
							<path d="m154.81 120.97s1.645 17.389 4.758 22.354" fill="#80A643"/>
								<path d="m154.81 120.97s1.645 17.389 4.758 22.354" fill="none"/>
								<path d="m154.17 121.07c0.311 3.239 0.754 6.468 1.271 9.68 0.68 4.224 1.33 9.014 3.525 12.769 0.244 0.416 1.494 0.098 1.207-0.391-2.273-3.889-2.861-8.935-3.566-13.31-0.479-2.968-0.867-5.959-1.154-8.952-0.05-0.5-1.33-0.32-1.28 0.2z" fill="#fff"/>
							<path d="m153.34 118.32s-2.742 14.242 3.295 24.18" fill="#80A643"/>
								<path d="m153.34 118.32s-2.742 14.242 3.295 24.18" fill="none"/>
								<path d="m152.71 118.31c-1.508 8.048-0.801 17.236 3.328 24.395 0.264 0.457 1.51 0.118 1.205-0.41-4.045-7.012-4.738-16.083-3.262-23.964 0.11-0.61-1.18-0.54-1.27-0.02z" fill="#fff"/>
							<path d="m151.7 116.5s-4.58 10.598-1.283 17.884" fill="#80A643"/>
								<path d="m151.7 116.5s-4.58 10.598-1.283 17.884" fill="none"/>
								<path d="m151.06 116.49c-2.35 5.534-3.57 12.384-1.25 18.089 0.184 0.451 1.432 0.158 1.205-0.4-2.262-5.56-0.971-12.296 1.314-17.681 0.21-0.5-1.07-0.47-1.27-0.01z" fill="#fff"/>
							<path d="m148.77 116.33s-6.041 8.116-1.281 17.221" fill="#80A643"/>
								<path d="m148.77 116.33s-6.041 8.116-1.281 17.221" fill="none"/>
								<path d="m148.14 116.36c-3.66 5.043-3.939 11.787-1.295 17.296 0.188 0.393 1.412 0.064 1.283-0.203-2.629-5.477-2.365-12.139 1.271-17.146 0.19-0.25-1.01-0.28-1.25 0.05z" fill="#fff"/>
					</g>
					<g opacity=".9">
							<path d="m120.27 148.02s4.158-3.473 12.992-6.445c8.834-2.969 20.596-11.84 17.049-19.421-3.553-7.582-12.523-4.406-12.523-4.406s4.512-6.55-5.229-8.754c-9.74-2.21-25.31 27.33-12.29 39.02z" fill="#93AD74"/>
							<path d="m120.08 147.48s8.926-24.302 14.986-26.485" fill="#93AD74"/>
								<path d="m120.08 147.48s8.926-24.302 14.986-26.485" fill="none"/>
								<path d="m120.67 147.64c1.393-3.778 2.965-7.495 4.633-11.159 1.344-2.949 2.801-5.848 4.443-8.642 1.314-2.235 3.035-5.345 5.561-6.398 0.785-0.327 0.201-1.18-0.49-0.891-4.711 1.966-7.447 8.862-9.506 13.075-2.174 4.451-4.113 9.047-5.828 13.696-0.25 0.71 0.99 0.9 1.2 0.32z" fill="#fff"/>
							<path d="m121.98 144.18s12.193-22.287 13.621-22.516" fill="#93AD74"/>
								<path d="m121.98 144.18s12.193-22.287 13.621-22.516" fill="none"/>
								<path d="m122.61 144.16c1.895-3.459 3.826-6.898 5.785-10.318 1.455-2.542 2.936-5.071 4.471-7.565 0.617-1.004 1.912-3.985 3.098-4.426 0.787-0.293-0.348-0.494-0.721-0.355-1.008 0.374-1.738 1.887-2.285 2.709-1.723 2.59-3.277 5.297-4.838 7.986-2.311 3.978-4.561 7.991-6.77 12.024-0.17 0.3 1.07 0.28 1.26-0.06z" fill="#fff"/>
							<path d="m123.1 144.89s13.461-12.603 12.779-23.741" fill="#93AD74"/>
								<path d="m123.1 144.89s13.461-12.603 12.779-23.741" fill="none"/>
								<path d="m123.61 145.16c6.396-6.033 13.209-14.927 12.914-24.116-0.021-0.644-1.305-0.456-1.283 0.204 0.283 8.882-6.473 17.544-12.648 23.369-0.59 0.57 0.56 0.98 1.02 0.55z" fill="#fff"/>
								<path d="m126.59 142.44s18.375-13.577 10.348-21.227" fill="none"/>
								<path d="m127.08 142.59c5.398-4.014 17.387-14.428 10.465-21.557-0.305-0.313-1.516 0.05-1.211 0.363 6.68 6.878-4.998 17.004-10.232 20.896-0.59 0.44 0.65 0.54 0.98 0.3z" fill="#fff"/>
								<path d="m130.22 141.28s21.334-13.82 8.141-20.194" fill="none"/>
								<path d="m130.61 141.68c6.113-3.983 19.463-15.201 8.139-21.033-0.602-0.311-1.52 0.506-0.791 0.881 10.383 5.349-2.646 15.772-8.139 19.352-0.71 0.47 0.19 1.19 0.79 0.8z" fill="#fff"/>
								<path d="m140.76 136.07s10.803-10.207-1.621-15.891" fill="none"/>
								<path d="m141.25 136.27c1.869-1.795 3.357-4.065 4.152-6.533 1.514-4.696-1.979-8.004-5.861-9.909-0.455-0.223-1.52 0.353-0.82 0.695 4.297 2.108 6.865 5.46 5.051 10.232-0.717 1.883-2.066 3.714-3.518 5.108-0.55 0.55 0.64 0.76 1 0.41z" fill="#fff"/>
							<path d="m149.21 127.31s0.742-6.676-10.215-8.316" fill="#93AD74"/>
								<path d="m149.21 127.31s0.742-6.676-10.215-8.316" fill="none"/>
								<path d="m149.85 127.21c0.547-5.473-6.447-7.854-10.572-8.524-0.447-0.072-1.404 0.482-0.566 0.619 3.926 0.639 10.369 2.958 9.855 8.108-0.03 0.35 1.24 0.26 1.29-0.21z" fill="#fff"/>
								<path d="m119.66 142.76s1.701-18.355 13.988-21.752" fill="none"/>
								<path d="m120.3 142.66c0.811-8.357 4.85-18.762 13.557-21.417 0.846-0.258 0.123-0.631-0.424-0.465-9.229 2.816-13.551 13.158-14.416 22.086-0.03 0.31 1.24 0.22 1.28-0.21z" fill="#fff"/>
								<path d="m118.26 140.42s0.176-19.396 15.344-21.865" fill="none"/>
								<path d="m118.9 140.32c0.129-9.29 4.898-19.502 14.771-21.331 0.785-0.146 0.654-1.012-0.137-0.865-10.535 1.952-15.781 12.381-15.918 22.399 0 0.57 1.28 0.4 1.29-0.2z" fill="#fff"/>
								<path d="m116.63 135.42s1.252-19.555 16.875-18.795" fill="none"/>
								<path d="m117.27 135.32c0.615-8.931 5.891-18.68 15.947-18.409 0.402 0.011 1.414-0.548 0.574-0.571-10.908-0.293-17.111 9.09-17.805 19.183-0.01 0.33 1.26 0.23 1.29-0.2z" fill="#fff"/>
							<path d="m118.96 121.91s6.723-9.291 14.115-8.83" fill="#93AD74"/>
								<path d="m118.96 121.91s6.723-9.291 14.115-8.83" fill="none"/>
								<path d="m119.47 122.23c3.078-4.205 8.012-8.709 13.512-8.588 0.785 0.017 1.018-1.11 0.172-1.129-6.004-0.132-11.34 4.461-14.717 9.072-0.48 0.68 0.61 1.24 1.04 0.65z" fill="#fff"/>
					</g>
				<path d="m298.39 122.49c6.558-0.714 10.866 6.621 11.683 12.254 0.104 0.728 1.389 0.523 1.283-0.203-0.928-6.411-5.867-13.946-13.141-13.154-0.81 0.09-0.63 1.19 0.18 1.1z" fill="#808080"/>
				<path d="m299.62 112.54c3.75-0.073 7.572 0.024 11.055 1.569 4.129 1.83 6.012 6.006 6.914 10.172 0.143 0.657 1.426 0.448 1.283-0.203-0.947-4.38-2.822-8.208-6.805-10.514-3.609-2.09-8.225-2.117-12.26-2.038-0.73 0.02-1.04 1.03-0.18 1.01z" fill="#808080"/>
				<path d="m27.604 133.59c-4.436 1.75-7.332 7.367-5.365 11.891 0.262 0.602 1.484 0.199 1.195-0.467-1.703-3.916 0.811-8.975 4.666-10.497 0.791-0.31 0.209-1.2-0.496-0.92z" fill="#808080"/>
				<path d="m18.944 126.58c-6.719 4.106-9.646 13.835-7.309 21.186 0.184 0.579 1.459 0.349 1.283-0.203-2.213-6.958 0.377-16.407 6.793-20.328 0.729-0.45-0.238-0.99-0.767-0.66z" fill="#808080"/>
					<path d="m142.56 45.072l-14.611 7.378c-0.871 0.44-1.223 1.507-0.779 2.378l2.125 4.212c0.443 0.87 1.508 1.224 2.377 0.779l1.676-0.846 0.277 0.544c0.441 0.869 1.504 1.223 2.375 0.777l8.096-4.087c0.873-0.438 1.223-1.505 0.779-2.376l-0.271-0.541 1.678-0.85c0.871-0.441 1.223-1.504 0.783-2.375l-2.129-4.213c-0.46-0.87-1.53-1.22-2.4-0.78z" fill="#fff"/>
						<path d="m142.19 44.809c-4.859 2.454-9.719 4.908-14.58 7.362-2.682 1.354-0.154 4.607 0.697 6.293 1.34 2.657 3.211 1.885 5.42 0.771-0.326-0.022-0.652-0.045-0.979-0.068 1.273 2.505 3.273 1.569 5.234 0.579 1.777-0.896 3.557-1.794 5.334-2.691 0.75-0.379 2.176-0.885 2.301-1.875 0.252-2.015-0.973-1.456 1.041-2.477 1.119-0.566 1.521-1.827 0.965-2.931-1.197-2.37-2.012-5.925-5.285-5.025-0.842 0.231-0.164 0.817 0.453 0.648 1.625-0.447 2.574 2.687 3.035 3.599 0.963 1.906 0.193 3.129-1.594 4.033-0.178 0.091-0.332 0.255-0.229 0.457 1.34 2.662-3.037 3.854-4.615 4.649-1.584 0.8-4.219 3.035-5.434 0.645-0.154-0.305-0.754-0.182-0.977-0.068-3.049 1.538-3.621-0.945-4.813-3.309-1.322-2.617 1.406-3.318 3.125-4.187 3.883-1.959 7.766-3.919 11.646-5.88 0.77-0.383-0.27-0.761-0.74-0.525z" fill="#808080"/>
					<path d="m125.86 48.882c-2.141-3.132-10.289-8.843-15.281-12.185-4.992-3.344-7.93-12.759-6.18-19.426 1.754-6.669 9.09-10.787 9.09-10.787s6.902-4.971 17.068-1.52c10.17 3.456 10.662 18.981 9.795 23.632-0.875 4.651 0.279 12.823 0.279 12.823l-14.78 7.463z" fill="#fff"/>
						<path d="m126.47 48.705c-3.623-4.906-9.721-8.437-14.688-11.798-6.057-4.099-8.346-12.738-6.748-19.654 2.717-11.76 20.33-17.372 29.154-9.563 8.523 7.543 4.68 20.243 5.395 29.933 0.074 1.006 0.182 2.009 0.299 3.011 0.031 0.276 0.066 0.552 0.104 0.828-0.02-0.146 0.482-0.349 0.037-0.124-1.543 0.779-3.084 1.559-4.627 2.337-3.299 1.666-6.598 3.333-9.896 5-0.758 0.383 0.326 0.619 0.73 0.414 4.924-2.487 9.848-4.974 14.771-7.462 0.111-0.056 0.299-0.152 0.277-0.309-1.211-8.773 1.176-17.494-1.328-26.109-1.236-4.253-3.945-8.644-8.273-10.268-4.871-1.827-10.449-2.107-15.357-0.234-7.121 2.718-12.91 9.098-13.066 16.925-0.111 5.537 2.227 11.967 6.801 15.304 5.098 3.72 11.387 6.958 15.203 12.124 0.26 0.334 1.5 0.01 1.23-0.355z" fill="#808080"/>
					<path d="m126.72 47.435c-1.951-2.888-9.305-8.217-13.805-11.338-4.506-3.121-7.258-11.758-5.787-17.822 1.471-6.063 7.961-9.721 7.961-9.721s6.094-4.444 15.215-1.148c9.127 3.293 9.777 17.473 9.066 21.709-0.715 4.234 0.434 11.713 0.434 11.713l-13.08 6.607z" fill="#F3A934"/>
					<path d="m113.85 30.4c-1.066-3.531-1.326-7.433-0.469-10.678 0.621-2.365 1.941-4.41 3.391-6.063 0 0-3.742 1.282-5.895 6.832-2.15 5.546 2.97 9.909 2.97 9.909z" fill="#fff"/>
					<path d="m111.57 29.769c-1.066-3.532-1.324-7.434-0.471-10.681 0.623-2.364 1.945-4.409 3.393-6.06 0 0-3.74 1.28-5.893 6.83-2.15 5.548 2.97 9.911 2.97 9.911z" fill="#fff"/>
						<path d="m112.21 29.667c-1.65-5.982-1.223-11.688 2.861-16.572 0.34-0.407-0.615-0.4-0.797-0.333-7.047 2.606-8.887 12.279-3.313 17.186 0.324 0.286 1.512-0.095 1.213-0.357-2.078-1.83-3.346-4.415-3.461-7.173-0.135-3.277 2.836-7.954 5.994-9.122-0.264-0.11-0.529-0.222-0.795-0.333-4.162 4.979-4.682 10.763-2.986 16.908 0.14 0.438 1.41 0.191 1.3-0.204z" fill="#808080"/>
					<path d="m233.45 50.91c6.479 0.98 17.68 5.199 15.084 21.449-2.595 16.253-17.347 14.506-20.789 14.023-3.224-0.451-16.873-6.468-13.986-21.018 2.95-14.806 13.66-15.364 19.7-14.454z" fill="#fff"/>
						<path d="m233.45 50.91c6.479 0.98 17.68 5.199 15.084 21.449-2.595 16.253-17.347 14.506-20.789 14.023-3.224-0.451-16.873-6.468-13.986-21.018 2.95-14.806 13.66-15.364 19.7-14.454z" fill="none"/>
						<path d="m233.36 51.445c3.897 0.623 7.613 2.088 10.522 4.816 4.396 4.122 4.814 10.45 4.009 16.056-1.449 10.082-9.533 14.663-19.05 13.658-8.018-0.847-14.454-8.583-14.834-16.355-0.291-5.991 2.474-12.849 7.521-16.237 3.43-2.302 7.87-2.503 11.83-1.938 0.769 0.109 1.015-0.951 0.181-1.07-3.933-0.559-8.205-0.349-11.758 1.6-5.339 2.929-7.806 8.485-8.826 14.265-1.631 9.233 5.17 18.694 14.315 20.613 7.578 1.59 15.953-0.941 19.83-7.921 2.981-5.368 3.313-12.883 1.086-18.552-1.694-4.316-5.578-7.188-9.78-8.788-1.566-0.595-3.218-0.953-4.867-1.217-0.76-0.123-1 0.937-0.17 1.07z" fill="#808080"/>
					<path d="m241.51 63.06c-0.393-0.559-1.161-0.691-1.719-0.301l-8.526 5.997-4.445-6.326c-0.396-0.557-1.164-0.691-1.721-0.299-0.56 0.391-0.69 1.162-0.3 1.717l5.162 7.332v0.002c0.185 0.27 0.459 0.431 0.756 0.491 0.015 0.005 0.025 0.013 0.037 0.017 0.011 0 0.029-0.004 0.041-0.004 0.297 0.043 0.613-0.016 0.879-0.203v-0.003l9.533-6.705c0.56-0.395 0.69-1.16 0.3-1.715z" fill="#808080"/>
						<path d="m241.51 63.06c-0.393-0.559-1.161-0.691-1.719-0.301l-8.526 5.997-4.445-6.326c-0.396-0.557-1.164-0.691-1.721-0.299-0.56 0.391-0.69 1.162-0.3 1.717l5.162 7.332v0.002c0.185 0.27 0.459 0.431 0.756 0.491 0.015 0.005 0.025 0.013 0.037 0.017 0.011 0 0.029-0.004 0.041-0.004 0.297 0.043 0.613-0.016 0.879-0.203v-0.003l9.533-6.705c0.56-0.395 0.69-1.16 0.3-1.715z" fill="none"/>
						<path d="m241.67 62.956c-2.148-1.788-6.349 2.749-7.998 3.909-0.728 0.512-1.455 1.022-2.183 1.533-0.399 0.282-0.101 0.203-0.603-0.512-1.28-1.824-2.563-3.646-3.846-5.472-0.381-0.541-1.537-1.038-2.092-0.372-1.068 1.279-0.113 2.176 0.697 3.329 1.285 1.824 2.568 3.648 3.854 5.472 0.658 0.936 1.123 1.043 2.201 0.794 0.1-0.021 0.168-0.08 0.168-0.186 0-0.534 5.629-3.865 6.506-4.481 1.354-0.951 4.049-1.979 3.318-3.979-0.07-0.188-0.436-0.066-0.359 0.141 0.795 2.177-5.961 5.547-7.303 6.491-1.164 0.818-2.934 2.842-4.02 1.3-1.664-2.365-3.33-4.731-4.996-7.097-0.568-0.809 1.391-1.664 1.957-0.856 0.508 0.724 1.016 1.446 1.525 2.17 0.862 1.229 1.727 2.459 2.592 3.688 0.065 0.096 0.199 0.116 0.297 0.049 1.336-0.939 2.672-1.879 4.008-2.818 1.084-0.763 4.453-4.15 5.965-2.892 0.14 0.124 0.48-0.064 0.31-0.211z" fill="#fff"/>
					<line y1="52.475" x2="233.54" x1="234.11" y2="55.755" fill="none"/>
					<path d="m233.48 52.5c-0.188 1.094-0.381 2.188-0.571 3.28-0.076 0.445 1.198 0.312 1.262-0.049 0.19-1.094 0.383-2.188 0.572-3.28 0.08-0.446-1.2-0.313-1.26 0.049z" fill="#808080"/>
					<line y1="81.574" x2="228.47" x1="229.04" y2="84.853" fill="none"/>
					<path d="m228.4 81.534c-0.188 1.093-0.381 2.186-0.569 3.279-0.127 0.724 1.166 0.744 1.281 0.08 0.188-1.093 0.381-2.186 0.569-3.279 0.13-0.724-1.16-0.744-1.28-0.08z" fill="#808080"/>
					<line y1="71.482" x2="244.21" x1="247.48" y2="70.912" fill="none"/>
					<path d="m247.76 71.125c-1.094-0.19-2.186-0.381-3.276-0.57-0.51-0.089-1.394 0.569-0.551 0.715 1.092 0.19 2.185 0.381 3.276 0.57 0.51 0.088 1.39-0.57 0.55-0.715z" fill="#808080"/>
					<line y1="66.417" x2="215.1" x1="218.38" y2="65.845" fill="none"/>
					<path d="m218.67 66.098c-1.095-0.19-2.188-0.381-3.281-0.572-0.459-0.08-1.4 0.492-0.563 0.639 1.095 0.19 2.188 0.381 3.281 0.572 0.45 0.08 1.39-0.492 0.56-0.639z" fill="#808080"/>
					<path d="m153.7 50.994c-0.924 6.807-2.018 15.102-2.186 16.928-0.287 3.122 1.902 4.055 1.902 4.055s27.533 3.693 30.43 4.092c2.897 0.396 3.433-2.42 3.433-2.42s1.5-10.125 2.536-17.994l-36.11-4.661z" fill="#fff"/>
						<path d="m153.07 50.989c-0.709 5.227-1.428 10.456-2.051 15.696-0.201 1.685-0.275 5.355 2.15 5.681 5.484 0.735 10.971 1.472 16.455 2.209 3.387 0.455 6.773 0.91 10.16 1.366 1.656 0.224 4.309 1.037 5.914 0.312 1.928-0.872 2.195-2.432 2.469-4.305 0.795-5.425 1.566-10.854 2.289-16.289 0.029-0.224-0.154-0.364-0.365-0.392-12.039-1.554-24.075-3.106-36.114-4.66-0.543-0.07-1.387 0.664-0.541 0.773 7.596 0.98 15.19 1.96 22.787 2.94 3.981 0.514 7.963 1.027 11.944 1.541 2.094 0.27 0.906 0.634 0.611 2.819-0.547 4.019-1.121 8.032-1.705 12.045-0.205 1.415-0.205 2.943-1.006 4.172-0.965 1.481-4.879 0.386-6.223 0.205-5.213-0.703-10.426-1.402-15.641-2.103-3.479-0.468-6.957-0.935-10.436-1.4-2.494-0.335-1.438-5.279-1.242-6.849 0.527-4.245 1.102-8.483 1.674-12.722 0.047-0.344 0.094-0.688 0.141-1.031 0.1-0.595-1.18-0.504-1.25-0.008z" fill="#808080"/>
					<path d="m154.27 47.603c0.387-2.835 1.107-8.092 1.107-8.092s0.162-2.643 2.281-2.879l31.923 4.347s1.912 0.403 1.715 2.905c-0.051 0.61-0.744 5.852-1.073 8.426l-35.96-4.707z" fill="#fff"/>
						<path d="m154.9 47.61c0.369-2.697 0.738-5.395 1.107-8.092 0.303-2.209 1.158-2.523 2.928-2.282 4.697 0.64 9.396 1.279 14.093 1.918 4.807 0.655 9.614 1.31 14.422 1.964 1.082 0.147 2.006 0.066 2.784 0.951 0.945 1.074 0.203 3.636 0.041 4.895-0.229 1.78-0.463 3.559-0.692 5.339 0.303-0.128 0.604-0.257 0.906-0.386-11.984-1.568-23.97-3.138-35.954-4.707-0.551-0.071-1.385 0.673-0.541 0.785 11.984 1.568 23.971 3.137 35.956 4.707 0.258 0.033 0.856-0.025 0.903-0.386 0.377-2.931 3.166-11.162-1.586-11.809-5.233-0.712-10.467-1.425-15.701-2.137-5.077-0.692-10.156-1.384-15.234-2.075-4.777-0.65-4.334 8.601-4.703 11.301-0.09 0.604 1.2 0.518 1.26 0.014z" fill="#808080"/>
					<path d="m156.65 47.433c0.32-2.348 0.916-6.699 0.916-6.699s0.113-2.19 2.07-2.36l29.512 4.021s1.771 0.359 1.617 2.434c-0.039 0.504-0.608 4.847-0.882 6.979l-33.24-4.375z" fill="#D34D3C"/>
					<path d="m167.77 40.28c-0.17 1.242-1.313 2.111-2.56 1.944-1.246-0.172-2.11-1.318-1.94-2.563l0.779-5.689c0.17-1.243 1.314-2.111 2.557-1.943 1.244 0.171 2.111 1.316 1.94 2.56l-0.78 5.691z" fill="#fff"/>
						<path d="m167.77 40.28c-0.17 1.242-1.313 2.111-2.56 1.944-1.246-0.172-2.11-1.318-1.94-2.563l0.779-5.689c0.17-1.243 1.314-2.111 2.557-1.943 1.244 0.171 2.111 1.316 1.94 2.56l-0.78 5.691z" fill="none"/>
						<path d="m165.85 40.143c-0.281 1.098-0.632-0.479-0.582-0.841 0.09-0.653 0.18-1.308 0.271-1.962 0.147-1.077 0.295-2.154 0.442-3.231 0.14-1.013 0.635 0.435 0.58 0.84-0.091 0.654-0.181 1.307-0.271 1.962-0.15 1.077-0.3 2.155-0.44 3.232-0.308 2.243 3.565 2.354 3.853 0.273 0.145-1.078 0.293-2.154 0.44-3.232 0.137-0.999 0.563-2.403 0.348-3.425-0.967-4.607-7.256-4.249-8.361 0.077-0.262 1.031-0.299 2.178-0.441 3.231-0.139 1-0.564 2.403-0.35 3.425 0.967 4.61 7.256 4.25 8.364-0.075 0.55-2.171-3.34-2.296-3.85-0.274z" fill="#fff"/>
					<path d="m183.98 42.674c-0.174 1.241-1.319 2.115-2.563 1.943-1.24-0.17-2.111-1.314-1.939-2.559l0.775-5.689c0.174-1.242 1.313-2.113 2.561-1.944 1.24 0.174 2.117 1.316 1.941 2.557l-0.78 5.692z" fill="#fff"/>
						<path d="m183.98 42.674c-0.174 1.241-1.319 2.115-2.563 1.943-1.24-0.17-2.111-1.314-1.939-2.559l0.775-5.689c0.174-1.242 1.313-2.113 2.561-1.944 1.24 0.174 2.117 1.316 1.941 2.557l-0.78 5.692z" fill="none"/>
						<path d="m182.08 42.696c-0.162 0.623 0.178 1.149-0.488 0.271-0.182-0.238-0.24-0.742-0.195-1.063 0.088-0.648 0.176-1.297 0.264-1.944 0.164-1.204 0.328-2.409 0.492-3.612 0.092-0.671-0.129-1.079 0.488-0.271 0.182 0.24 0.238 0.738 0.195 1.061-0.088 0.648-0.176 1.297-0.265 1.945-0.18 1.204-0.34 2.409-0.5 3.613-0.222 1.626 3.621 1.268 3.801-0.043 0.291-2.146 0.76-4.333 0.813-6.499 0.049-2.055-2.479-2.776-4.051-2.81-1.912-0.04-3.811 1.188-4.291 3.046-0.518 2.01-0.766 4.415-0.813 6.498-0.047 2.058 2.469 2.775 4.047 2.81 1.912 0.043 3.813-1.189 4.295-3.045 0.39-1.531-3.46-1.279-3.8 0.043z" fill="#fff"/>
					<path d="m167.77 40.28c-0.17 1.242-1.313 2.111-2.56 1.944-1.246-0.172-2.11-1.318-1.94-2.563l0.779-5.689c0.17-1.243 1.314-2.111 2.557-1.943 1.244 0.171 2.111 1.316 1.94 2.56l-0.78 5.691z" fill="#fff"/>
						<path d="m167.13 40.255c-0.985 0.221-1.975 0.441-2.96 0.662-0.232-0.4-0.318-0.822-0.258-1.266 0.021-0.154 0.043-0.308 0.063-0.462 0.09-0.653 0.18-1.308 0.271-1.962 0.147-1.077 0.297-2.154 0.442-3.231 0.985-0.221 1.974-0.442 2.959-0.663 0.231 0.4 0.317 0.822 0.259 1.266-0.021 0.154-0.043 0.308-0.064 0.462l-0.27 1.962c-0.14 1.077-0.29 2.155-0.44 3.232-0.092 0.673 1.195 0.638 1.277 0.049 0.285-2.093 0.748-4.228 0.793-6.341 0.033-1.59-1.707-2.391-3.02-2.417-1.428-0.028-2.447 1.136-2.771 2.401-0.502 1.967-0.752 4.305-0.795 6.34-0.033 1.591 1.707 2.393 3.02 2.418 1.43 0.027 2.448-1.135 2.772-2.401 0.17-0.646-1.13-0.628-1.28-0.049z" fill="#808080"/>
					<path d="m183.98 42.674c-0.174 1.241-1.319 2.115-2.563 1.943-1.24-0.17-2.111-1.314-1.939-2.559l0.775-5.689c0.174-1.242 1.313-2.113 2.561-1.944 1.24 0.174 2.117 1.316 1.941 2.557l-0.78 5.692z" fill="#fff"/>
						<path d="m183.34 42.661c-0.448 1.729-2.885 1.5-3.235-0.18-0.041-0.197 0.019-0.483 0.045-0.697 0.082-0.597 0.164-1.193 0.244-1.789 0.164-1.204 0.328-2.408 0.491-3.613 0.25-1.823 2.896-1.437 3.236 0.178 0.041 0.195-0.018 0.484-0.047 0.696-0.08 0.597-0.162 1.194-0.244 1.791-0.15 1.204-0.32 2.409-0.48 3.614-0.086 0.633 1.199 0.566 1.273 0.027 0.283-2.09 0.742-4.221 0.791-6.331 0.039-1.586-1.721-2.349-3.014-2.376-1.406-0.03-2.455 1.119-2.779 2.374-0.504 1.959-0.746 4.3-0.791 6.329-0.037 1.59 1.711 2.349 3.01 2.378 1.406 0.031 2.459-1.12 2.783-2.374 0.16-0.604-1.13-0.56-1.27-0.027z" fill="#808080"/>
					<path d="m241.89 30.265s-6.248 1.723-10.818-4.021c-4.565-5.743 0-11.372 0-11.372l-19.813 17.365s-0.643 5.822 3.867 10.217c4.51 4.393 9.547 2.287 9.547 2.287l17.21-14.476z" fill="#fff"/>
						<path d="m241.89 30.265s-6.248 1.723-10.818-4.021c-4.565-5.743 0-11.372 0-11.372l-19.813 17.365s-0.643 5.822 3.867 10.217c4.51 4.393 9.547 2.287 9.547 2.287l17.21-14.476z" fill="none"/>
						<path d="m241.65 29.877c-8.219 2.109-15.252-8.122-9.991-14.876 0.432-0.556-0.787-0.628-1.093-0.361-4.646 4.073-9.293 8.146-13.94 12.219-1.937 1.697-3.873 3.395-5.81 5.092-1.642 1.438 1.005 6.941 1.769 8.296 2.188 3.883 6.504 5.943 10.848 5.279 1.766-0.27 2.738-1.391 4.068-2.509 4.963-4.173 9.926-8.347 14.889-12.52 0.604-0.507-0.584-0.818-1.004-0.465-4.152 3.491-8.305 6.982-12.457 10.473-1.58 1.33-3.16 2.659-4.742 3.988-0.391 0.329-3.42 0.276-4.586 0.014-3.936-0.881-6.447-4.926-7.383-8.552-0.676-2.625-0.762-3.22 0.963-4.732 2.264-1.982 4.525-3.965 6.787-5.947 3.867-3.391 7.736-6.78 11.604-10.171-0.363-0.121-0.727-0.241-1.09-0.361-6.135 7.878 2.781 18.184 11.643 15.909 0.83-0.214 0.19-0.946-0.48-0.776z" fill="#808080"/>
					<path d="m222.44 47.414s-5.401 0.398-9.924-3.828c-4.522-4.23-3.022-10.315-3.022-10.315l-4.384 4.341s-2.276 5.353 1.229 9.666c3.513 4.312 8.681 4.734 11.263 3.937l4.83-3.801z" fill="#fff"/>
						<path d="m222.44 47.414s-5.401 0.398-9.924-3.828c-4.522-4.23-3.022-10.315-3.022-10.315l-4.384 4.341s-2.276 5.353 1.229 9.666c3.513 4.312 8.681 4.734 11.263 3.937l4.83-3.801z" fill="none"/>
						<path d="m222.36 46.915c-7.262 0.405-13.896-6.338-12.229-13.61 0.146-0.642-0.85-0.612-1.149-0.315-1.317 1.306-3.922 2.979-4.567 4.728-1.404 3.788-0.558 7.679 2.088 10.664 2.578 2.909 6.912 4.142 10.666 3.468 2.055-0.369 4.07-2.802 5.664-4.055 0.666-0.524-0.234-1.19-0.785-0.76-1.443 1.136-2.889 2.271-4.334 3.406-2.879 2.262-8.096-0.75-10.182-2.739-1.888-1.799-4.07-7.671-1.699-10.02 1.391-1.377 2.781-2.754 4.17-4.13-0.383-0.104-0.767-0.21-1.148-0.315-1.873 8.165 5.764 15.117 13.666 14.677 0.82-0.047 0.64-1.043-0.16-0.999z" fill="#808080"/>
					<path d="m242.76 28.757s-6.069 0.348-9.578-3.967c-3.51-4.313 0.105-9.558 0.105-9.558l13.373-1.428-3.89 14.953z" fill="#fff"/>
						<path d="m242.76 28.757s-6.069 0.348-9.578-3.967c-3.51-4.313 0.105-9.558 0.105-9.558l13.373-1.428-3.89 14.953z" fill="none"/>
						<path d="m242.87 28.366c-3.422 0.15-6.813-1.224-9.088-3.775-1.724-1.929-1.712-4.536-1.039-6.863 0.219-0.756 0.584-1.482 0.979-2.159 0.273-0.473-0.729 0.078-0.084 0.01 4.361-0.466 8.721-0.932 13.08-1.396-0.232-0.127-0.463-0.254-0.695-0.38-1.299 4.984-2.6 9.969-3.9 14.953-0.145 0.554 1.146 0.485 1.271 0.003 1.301-4.984 2.603-9.968 3.899-14.953 0.099-0.374-0.469-0.403-0.692-0.38-2.813 0.301-5.627 0.601-8.438 0.902-1.22 0.13-4.834-0.202-5.607 1.035-4.672 7.465 2.563 14.116 10.092 13.786 0.65-0.028 1.1-0.821 0.23-0.783z" fill="#808080"/>
					<line y1="30.153" x2="217.58" x1="233.08" y2="43.158" fill="none"/>
						<line y1="30.153" x2="217.58" x1="233.08" y2="43.158" fill="none"/>
						<path d="m232.58 29.977l-15.492 13.005c-0.576 0.484 0.643 0.64 0.986 0.352 5.164-4.335 10.327-8.67 15.491-13.005 0.57-0.485-0.65-0.64-0.99-0.352z" fill="#808080"/>
					<line y1="24.58" x2="212.9" x1="229.13" y2="36.736" fill="none"/>
						<line y1="24.58" x2="212.9" x1="229.13" y2="36.736" fill="none"/>
						<path d="m228.64 24.421c-5.41 4.052-10.819 8.104-16.229 12.156-0.588 0.44 0.648 0.565 0.98 0.316 5.41-4.052 10.818-8.104 16.229-12.156 0.59-0.44-0.64-0.565-0.98-0.316z" fill="#808080"/>
					<path d="m243.54 23.283s-5.791-0.975-6.252-7.723" fill="#fff"/>
						<path d="m243.54 23.283s-5.791-0.975-6.252-7.723" fill="none"/>
						<path d="m243.96 23.016c-3.644-0.646-5.732-4.117-6.033-7.558-0.033-0.379-1.32-0.207-1.283 0.203 0.32 3.662 2.641 7.21 6.471 7.887 0.33 0.062 1.51-0.414 0.84-0.532z" fill="#808080"/>
				<path enable-background="new    " d="m213.03 37.32l15.705-11.075s2.026 3.275 3.226 3.536c1.197 0.26-15.81 12.427-15.81 12.427s-3.29-3.378-3.13-4.888z" fill="#A3D7CC"/>
				<path enable-background="new    " d="m227.22 20.056s-1.039 2.911 0 4.16l-14.093 11.077s-1.039-2.342-0.467-3.586c0.58-1.251 14.56-11.651 14.56-11.651z" fill="#A3D7CC"/>
				<path enable-background="new    " d="m234.06 30.75s1.125 1.162 5.647 0.437c0 0-16.018 12.634-16.746 12.688-0.727 0.05-3.43 0.154-4.002-0.366l15.1-12.759z" fill="#A3D7CC"/>
					<path d="m93.118 42.225l8.754 17.442s0.855 1.998-1.008 3.117c-1.873 1.12-19.664 9.597-19.664 9.597s-2.043 0.987-2.984-0.746c-0.947-1.73-11.822-24.717-11.822-24.717s-0.242-1.852 0.516-2.547l13.359-6.338" fill="#fff"/>
						<path d="m93.118 42.225l8.754 17.442s0.855 1.998-1.008 3.117c-1.873 1.12-19.664 9.597-19.664 9.597s-2.043 0.987-2.984-0.746c-0.947-1.73-11.822-24.717-11.822-24.717s-0.242-1.852 0.516-2.547l13.359-6.338" fill="none"/>
						<path d="m92.516 42.43c1.459 2.907 2.918 5.814 4.377 8.721 1.428 2.847 3.621 5.954 4.463 9.04 0.615 2.256-3.037 3.43-4.484 4.146-2.301 1.139-4.611 2.253-6.922 3.37-2.178 1.05-4.357 2.097-6.539 3.141-1.193 0.572-3.332 2.187-4.592 0.583-1.941-2.469-3.059-6.278-4.402-9.094-2.09-4.377-4.17-8.759-6.248-13.143-0.354-0.746-1.074-1.749-1.152-2.575-0.23-2.386 1.609-2.585 3.402-3.436 3.408-1.618 6.818-3.235 10.229-4.854 0.77-0.365-0.248-0.834-0.758-0.592-3.57 1.693-7.141 3.388-10.711 5.081-2.047 0.971-4.506 1.941-3.166 4.773 3.732 7.883 7.4 15.804 11.279 23.617 1.234 2.488 3.342 1.919 5.404 0.935 4.463-2.131 8.922-4.271 13.363-6.443 2.238-1.094 7.738-2.651 6.455-6.136-1.188-3.223-3.164-6.327-4.703-9.393-1.363-2.717-2.727-5.435-4.09-8.153-0.24-0.463-1.488-0.139-1.211 0.412z" fill="#808080"/>
					<path d="m81.065 37.649l3.74 7.06 7.094-2.986s0.49-0.566 0.146-1.057c-0.35-0.486-9.695-3.527-9.695-3.527s-0.926 0.12-1.285 0.51z" fill="#fff"/>
						<path d="m80.467 37.886c1.248 2.354 2.494 4.706 3.742 7.06 0.154 0.291 0.563 0.359 0.846 0.239 1.971-0.829 3.941-1.659 5.91-2.488 0.865-0.364 2.986-1.531 1.324-2.584-1.902-1.204-4.5-1.741-6.613-2.456-1.746-0.591-3.318-1.576-5.008-0.407-0.697 0.483 0.201 1.207 0.791 0.798 0.795-0.549 0.584-0.426 1.41-0.154 0.77 0.253 1.535 0.509 2.301 0.768 1.91 0.644 3.828 1.286 5.697 2.041 0.479 0.193 1.047 0.43 0.359 0.72-0.846 0.356-1.691 0.713-2.537 1.068-1.379 0.58-2.756 1.161-4.135 1.741 0.283 0.08 0.564 0.16 0.848 0.239-1.248-2.353-2.494-4.706-3.742-7.06-0.316-0.596-1.536-0.176-1.193 0.475z" fill="#808080"/>
					<line y1="56.421" x2="90.614" x1="77.823" y2="50.248" fill="none"/>
						<path d="m78.2 56.705c4.264-2.059 8.527-4.116 12.791-6.174 0.768-0.37-0.26-0.805-0.754-0.567-4.264 2.059-8.527 4.117-12.791 6.174-0.768 0.37 0.26 0.805 0.754 0.567z" fill="#808080"/>
						<line y1="59.621" x2="92.1" x1="79.368" y2="53.614" fill="none"/>
						<path d="m79.733 59.829c4.244-2.002 8.488-4.005 12.732-6.007 0.768-0.362-0.324-0.608-0.73-0.416-4.244 2.002-8.488 4.005-12.732 6.007-0.768 0.362 0.324 0.607 0.73 0.416z" fill="#808080"/>
						<line y1="64.072" x2="94.336" x1="81.52" y2="57.741" fill="none"/>
						<path d="m81.891 64.319c4.273-2.11 8.545-4.221 12.816-6.331 0.764-0.378-0.291-0.717-0.742-0.494-4.271 2.11-8.543 4.22-12.816 6.331-0.764 0.378 0.293 0.717 0.742 0.494z" fill="#808080"/>
				<path d="m206.33 237.34c18.207-5.873 29.926-11.803 35.885-28.485 5.373-15.049 4.109-27.022 1.177-42.295l-16.256-2.74-4.647-23.713 6.184-11.1 9.482 8.642-0.632-13.489s18.894-4.194 25.252 24.775l-9.985 15.862c14.098 35.246-4.115 76.957-44.058 82.242" fill="#fff"/>
					<path d="m206.45 237.76c12.178-3.97 24.334-8.729 31.877-19.646 10.434-15.105 8.971-34.688 5.745-51.74-0.036-0.195-0.272-0.25-0.434-0.275-4.854-0.818-9.71-1.639-14.563-2.455-1.927-0.326-1.205 0.256-1.584-1.678-0.511-2.6-1.021-5.199-1.529-7.799-0.928-4.732-1.855-9.463-2.783-14.195-0.137-0.702 2.52-4.414 3.047-5.361 1.031-1.852 2.063-3.701 3.094-5.551-0.422 0.076-0.844 0.153-1.264 0.229 3.16 2.88 6.322 5.762 9.482 8.642 0.291 0.266 1.33 0.204 1.305-0.35-0.113-2.408-0.228-4.817-0.338-7.227-0.068-1.444-0.137-2.889-0.203-4.333-0.064-1.383 0.248-1.624-0.578-1.461 3.635-0.717 7.635 0.443 10.805 2.147 3.152 1.693 5.594 4.393 7.611 7.292 1.367 1.965 2.381 4.152 3.311 6.351 0.545 1.285 3.369 7.44 2.654 8.577-2.949 4.684-5.898 9.367-8.846 14.051-1.519 2.408-0.82 2.689 0.203 5.662 1.521 4.422 2.44 9.033 2.996 13.67 1.153 9.672-0.162 19.592-3.443 28.732-6.949 19.365-23.996 32.631-44.207 35.533-0.713 0.104-1.064 1.047-0.141 0.914 17.192-2.472 31.907-11.742 40.996-26.621 9.563-15.66 10.707-35.367 5.149-52.592-0.32-0.99-1.642-3.013-1.08-3.902 0.664-1.055 1.326-2.107 1.989-3.162 1.804-2.863 3.605-5.727 5.41-8.592 0.41-0.651 2.521-3.028 2.322-3.873-1.178-5.065-2.814-9.906-5.475-14.393-4.047-6.826-12.326-12.369-20.566-10.626-0.188 0.04-0.58 0.241-0.568 0.486 0.211 4.496 0.42 8.992 0.632 13.49 0.437-0.119 0.868-0.233 1.305-0.351-3.161-2.881-6.321-5.762-9.481-8.642-0.349-0.316-1.035-0.181-1.265 0.229-2.28 4.094-6.721 8.777-5.782 13.563 1.403 7.162 2.809 14.326 4.213 21.49 0.037 0.192 0.271 0.248 0.432 0.274 4.855 0.817 9.711 1.638 14.566 2.455 1.848 0.312 1.229-0.142 1.602 1.826 0.545 2.887 1.008 5.786 1.41 8.696 0.828 5.969 0.973 11.961 0.346 17.951-1.07 10.213-4.879 20.646-12.125 28.072-6.996 7.168-17.191 10.615-26.473 13.639-0.81 0.27-0.6 1.12 0.22 0.85z" fill="#808080"/>
			<g fill="#808080">
				<path d="m179.25 232.74c-0.648 0-1.101 0.754-0.23 0.756 8.936 0.021 17.14 11.631 16.311 20.354-1.113-1.369-2.341-2.594-3.721-3.743-0.285-0.237-1.406-0.03-1.129 0.466 2.15 3.863 3.389 7.926 4.033 12.084h1.348c-0.521-3.291-1.403-6.513-2.743-9.572 0.711 0.771 1.379 1.586 2.006 2.467 0.231 0.328 1.143 0.225 1.237-0.195 2.18-9.5-7.1-22.59-17.12-22.62z"/>
				<path d="m141.07 256.36c-4.155 1.395-8.163 2.926-11.974 5.063 0.499-4.092 1.569-8.107 2.974-11.979 1.738-4.793 4.432-10.428 9.268-12.741 0.768-0.367-0.277-0.75-0.748-0.525-8.678 4.154-11.998 17.465-12.871 26.152-0.018 0.172 0.075 0.273 0.21 0.328 0.181 0.07 0.437 0.055 0.629 0 0.065-0.02 0.125-0.041 0.168-0.066 3.688-2.215 7.592-3.788 11.634-5.184-0.736 1.762-1.472 3.508-2.187 5.25h1.259c0.819-1.982 1.665-3.966 2.499-5.974 0.17-0.42-0.69-0.39-0.86-0.33z"/>
			</g>
				<path d="m154.53 262.66c0.936-3.996 2.858-7.678 6.074-9.938 0.695-0.49-0.24-1.072-0.775-0.695-3.544 2.491-5.613 6.372-6.579 10.633h0.744" fill="#808080"/>
		</g>
</svg>
